<?xml version="1.0" standalone="no"?>
<!DOCTYPE svg PUBLIC "-//W3C//DTD SVG 20010904//EN"
 "http://www.w3.org/TR/2001/REC-SVG-20010904/DTD/svg10.dtd">
<svg version="1.0" xmlns="http://www.w3.org/2000/svg"
 width="680.000000pt" height="680.000000pt" viewBox="0 0 680.000000 680.000000"
 preserveAspectRatio="xMidYMid meet">
<metadata>
Created by potrace 1.14, written by Peter Selinger 2001-2017
</metadata>
<g transform="translate(0.000000,680.000000) scale(0.100000,-0.100000)"
fill="#000000" stroke="none">
<path d="M3159 6616 c-2 -2 -40 -7 -84 -11 -44 -3 -87 -8 -95 -10 -8 -2 -35
-7 -60 -10 -25 -3 -65 -10 -90 -15 -25 -5 -56 -12 -70 -14 -36 -7 -69 -14 -88
-20 -9 -3 -28 -7 -42 -10 -94 -18 -344 -106 -495 -174 -208 -94 -434 -230
-591 -354 -23 -18 -58 -46 -78 -62 -77 -60 -245 -221 -342 -327 -130 -142
-294 -377 -413 -593 -39 -71 -85 -145 -101 -165 -36 -42 -31 -35 -96 -131
-104 -151 -208 -340 -288 -522 -30 -68 -96 -260 -122 -355 -27 -98 -29 -108
-44 -188 -6 -27 -12 -61 -15 -75 -3 -14 -8 -45 -11 -70 -3 -24 -7 -47 -9 -50
-10 -16 -20 -212 -20 -395 1 -187 6 -297 20 -375 2 -14 7 -41 9 -60 13 -82 31
-178 40 -208 3 -9 8 -32 11 -51 3 -19 8 -38 11 -43 3 -4 7 -18 9 -29 5 -23 23
-84 32 -109 4 -8 7 -17 8 -20 4 -16 28 -88 34 -105 79 -198 169 -381 252 -514
33 -51 59 -95 59 -97 0 -5 146 -198 180 -238 55 -65 108 -122 171 -185 100
-101 151 -147 260 -235 192 -156 483 -324 729 -421 98 -38 228 -83 267 -91 12
-2 34 -9 48 -14 14 -5 25 -7 25 -4 0 2 8 0 18 -5 9 -5 33 -12 53 -15 20 -3 42
-8 50 -10 16 -6 236 -44 259 -45 8 0 44 -4 80 -8 86 -10 454 -9 555 2 90 9
157 9 230 -1 73 -9 539 -10 615 0 36 4 81 10 100 12 19 2 71 11 115 19 44 8
92 16 108 19 15 3 35 7 45 10 9 3 28 7 42 10 14 2 59 14 100 26 41 11 82 23
90 25 37 9 223 76 305 110 169 70 501 254 575 317 8 7 30 24 50 37 82 55 232
184 345 296 136 136 230 244 335 390 71 99 200 307 200 324 0 5 7 14 15 21 8
6 14 15 13 18 -1 4 10 30 24 57 99 191 212 523 244 715 3 19 8 38 10 41 2 4 6
24 9 45 20 133 25 166 32 229 19 173 6 620 -22 741 -2 12 -7 39 -11 60 -9 58
-34 175 -39 183 -2 4 -7 23 -10 42 -25 148 -172 515 -293 731 -66 117 -232
359 -281 410 -9 9 -27 31 -40 50 -14 18 -110 119 -215 224 -105 104 -224 226
-263 271 -93 103 -227 234 -309 302 -70 57 -256 192 -334 241 -149 95 -524
274 -615 295 -5 1 -19 5 -30 9 -50 19 -74 27 -130 42 -110 29 -130 34 -165 40
-19 3 -37 7 -40 9 -7 4 -165 32 -230 41 -25 3 -58 8 -75 10 -40 6 -521 15
-526 10z m501 -170 c32 -5 67 -9 155 -21 17 -2 64 -11 105 -20 41 -9 84 -18
95 -19 42 -7 119 -29 265 -76 177 -57 542 -230 590 -280 3 -3 22 -14 43 -25
20 -11 37 -23 37 -27 0 -5 6 -8 14 -8 7 0 19 -7 26 -14 6 -8 -33 3 -87 25
-115 48 -274 101 -387 130 -45 11 -97 24 -116 29 -40 10 -194 37 -258 45 -99
12 -120 14 -182 20 -149 16 -506 5 -660 -20 -14 -2 -43 -6 -65 -10 -23 -3 -50
-7 -60 -9 -58 -11 -105 -17 -107 -15 -2 1 -12 -2 -23 -8 -11 -6 -36 -14 -55
-17 -100 -16 -481 -145 -526 -178 -6 -4 -67 -19 -135 -32 -237 -48 -482 -130
-692 -233 -59 -29 -112 -53 -117 -53 -6 0 -10 -3 -10 -8 0 -4 -21 -18 -47 -32
-54 -27 -271 -167 -291 -187 -7 -7 -16 -13 -19 -13 -21 0 269 301 372 386 32
27 70 58 83 69 129 109 460 308 623 374 19 8 54 23 78 34 45 19 270 96 304
102 10 3 27 7 37 10 10 3 27 7 37 9 10 2 36 9 58 14 43 12 67 16 160 32 113
18 130 20 205 26 41 3 76 7 78 9 6 5 434 -3 472 -9z m240 -400 c58 -3 105 -5
105 -6 0 -1 18 -3 40 -5 68 -6 159 -20 235 -35 25 -6 56 -12 70 -15 34 -7 113
-25 125 -29 6 -1 30 -8 55 -15 230 -63 553 -205 743 -327 37 -24 70 -44 73
-44 3 0 10 -4 17 -10 7 -5 62 -47 122 -91 139 -104 144 -109 255 -273 62 -94
200 -329 200 -343 0 -3 18 -44 41 -91 23 -48 43 -94 44 -104 2 -9 8 -25 14
-35 15 -30 91 -253 85 -253 -3 0 -2 -6 3 -12 4 -7 8 -15 8 -18 1 -3 11 -48 24
-100 13 -52 25 -106 27 -120 3 -14 7 -36 9 -50 3 -14 7 -43 11 -65 3 -22 7
-51 10 -65 25 -142 25 -583 0 -760 -8 -57 -16 -106 -21 -130 -3 -14 -7 -38 -9
-55 -3 -16 -7 -37 -10 -45 -3 -8 -7 -27 -10 -41 -12 -76 -83 -299 -137 -436
-31 -80 -123 -271 -166 -348 -28 -50 -34 -59 -102 -165 -43 -69 -197 -270
-251 -330 -73 -80 -214 -220 -222 -220 -13 0 -9 9 12 32 11 12 20 28 20 35 0
7 4 13 8 13 5 0 15 12 23 28 7 15 28 50 45 77 39 63 101 182 157 305 24 53 68
135 97 184 123 204 229 489 269 721 6 33 13 74 16 90 19 111 26 386 12 515
-14 139 -18 166 -42 274 -22 105 -65 257 -85 301 -5 11 -28 65 -51 120 -45
104 -55 125 -122 240 -117 201 -297 414 -481 570 -32 28 -125 115 -205 195
-80 80 -182 174 -226 209 -44 34 -87 68 -95 75 -9 6 -38 27 -65 46 -28 19 -51
37 -53 42 -2 4 -7 8 -12 8 -4 0 -48 25 -96 56 -166 104 -414 218 -619 285 -38
13 -72 24 -75 24 -3 1 -25 7 -50 14 -25 7 -52 14 -60 16 -8 2 -33 8 -55 13
-22 6 -53 13 -70 16 -16 3 -55 10 -85 16 -30 5 -73 12 -95 14 -22 3 -62 8 -90
12 -27 4 -72 8 -98 9 -26 1 -50 5 -53 8 -5 5 109 32 181 42 22 3 54 8 70 10
47 8 111 14 220 21 55 3 101 7 102 8 2 2 120 -2 263 -8z m-816 -240 c100 -5
152 -14 95 -17 -63 -4 -98 -7 -144 -14 -91 -12 -144 -22 -240 -45 -136 -32
-294 -89 -445 -162 -80 -38 -146 -74 -148 -79 -2 -5 -8 -9 -14 -9 -21 0 -202
-127 -313 -220 -39 -32 -213 -206 -245 -245 -14 -16 -41 -50 -60 -75 -19 -25
-37 -47 -40 -50 -3 -3 -25 -34 -48 -70 -23 -36 -46 -70 -50 -75 -46 -56 -204
-391 -218 -460 -2 -10 -18 -42 -35 -70 -18 -27 -44 -70 -58 -95 -13 -25 -27
-47 -31 -50 -15 -14 -113 -228 -145 -321 -39 -112 -92 -320 -99 -391 -3 -24
-5 -43 -6 -43 -11 0 -19 -359 -10 -441 3 -30 3 -51 -2 -46 -20 20 -31 467 -14
622 4 41 9 93 12 115 21 203 118 546 215 760 12 28 23 52 23 55 1 3 23 48 50
100 193 375 478 714 816 972 64 48 239 168 246 168 3 0 18 8 32 19 15 10 79
46 143 79 132 69 156 74 389 88 58 3 106 7 107 8 2 2 67 0 237 -8z m385 -180
c63 -4 117 -8 120 -10 3 -2 29 -7 57 -10 28 -3 57 -8 65 -10 8 -3 30 -7 49
-10 50 -7 227 -61 312 -95 86 -34 266 -120 273 -130 2 -4 -29 1 -68 11 -40 10
-83 21 -97 23 -14 3 -34 7 -45 9 -11 2 -42 7 -70 11 -27 4 -61 9 -75 11 -19 3
-143 10 -265 16 -25 1 -233 -13 -254 -17 -13 -2 -49 -7 -80 -11 -31 -3 -59 -8
-62 -10 -4 -2 -24 -6 -44 -10 -59 -9 -65 -10 -160 -39 -49 -14 -97 -28 -105
-30 -32 -8 -175 -67 -187 -77 -7 -6 -13 -8 -13 -5 0 7 -175 -83 -232 -119 -21
-13 -43 -24 -50 -24 -16 0 -247 -58 -268 -67 -8 -3 -21 -7 -28 -9 -8 -1 -21
-6 -30 -10 -9 -4 -21 -8 -27 -9 -28 -7 -233 -101 -254 -117 -13 -10 -28 -18
-33 -18 -14 0 -164 -97 -250 -162 -43 -32 -80 -58 -83 -58 -3 0 9 21 26 48
174 256 413 486 655 633 140 84 412 204 509 224 5 1 28 7 51 13 93 27 222 47
374 58 47 4 86 7 87 8 2 2 35 0 202 -8z m-1609 -20 c0 -2 -30 -28 -67 -58 -38
-29 -81 -64 -98 -78 -39 -32 -303 -297 -332 -332 -280 -343 -451 -648 -573
-1021 -22 -67 -43 -133 -46 -147 -3 -14 -7 -36 -10 -49 -3 -14 -7 -28 -10 -32
-2 -4 -11 -42 -19 -86 -8 -43 -17 -89 -20 -103 -3 -14 -8 -45 -11 -70 -3 -25
-7 -52 -9 -60 -26 -91 -26 -632 0 -754 2 -12 6 -39 9 -61 3 -22 7 -49 10 -60
2 -11 7 -40 11 -65 11 -66 12 -70 28 -134 30 -114 -11 -21 -73 164 -18 52 -34
103 -36 113 -2 9 -6 25 -8 35 -2 9 -11 44 -20 77 -8 33 -17 74 -20 90 -3 17
-8 40 -10 52 -3 11 -8 43 -12 70 -3 26 -8 57 -10 68 -2 11 -7 49 -10 85 -3 36
-7 83 -10 105 -5 50 -5 353 0 420 4 50 14 138 21 185 9 61 18 117 22 135 2 11
5 31 7 45 14 92 101 385 142 478 13 29 23 53 23 55 -1 5 23 63 48 114 19 43
62 93 172 203 241 243 437 386 731 532 182 92 180 91 180 84z m2115 -339 c11
-3 45 -8 75 -13 30 -4 57 -8 60 -9 3 -1 23 -5 45 -9 100 -20 285 -77 364 -113
204 -91 338 -168 375 -217 14 -19 31 -40 38 -48 43 -45 238 -345 238 -365 0
-4 12 -31 26 -62 62 -132 107 -260 129 -366 3 -11 8 -33 12 -50 4 -16 7 -32 8
-35 1 -3 5 -25 9 -50 5 -25 10 -54 12 -65 18 -96 24 -385 11 -505 -12 -110
-15 -126 -43 -265 -12 -61 -68 -233 -106 -324 -97 -238 -271 -497 -446 -668
-31 -31 -35 -29 -14 9 68 122 168 423 188 568 2 19 7 46 10 59 18 85 25 458
10 546 -4 22 -9 54 -11 70 -3 34 -14 98 -22 129 -2 11 -9 40 -14 64 -4 23 -13
51 -19 62 -6 11 -8 20 -6 20 13 0 -71 216 -130 335 -208 425 -540 755 -969
961 -161 77 -350 141 -495 167 -67 12 -139 23 -220 32 -14 2 -47 4 -75 4 l-50
1 30 14 c29 14 112 42 151 51 10 3 64 16 119 29 108 26 143 32 250 42 39 4 72
8 74 10 5 5 363 -4 386 -9z m-815 -311 c19 -4 62 -12 95 -17 33 -6 87 -17 120
-26 33 -8 67 -16 75 -18 68 -13 300 -115 420 -183 52 -30 184 -118 219 -147
226 -185 390 -382 519 -625 42 -78 117 -254 127 -295 1 -5 5 -17 8 -25 9 -24
35 -122 41 -155 3 -16 7 -41 10 -55 7 -30 14 -73 23 -155 14 -118 8 -407 -11
-509 -33 -177 -79 -334 -131 -451 -38 -86 -79 -170 -85 -175 -3 -3 -12 -18
-20 -35 -8 -16 -18 -34 -23 -40 -4 -5 -29 -43 -56 -84 -27 -40 -59 -84 -70
-97 -12 -13 -21 -26 -21 -28 0 -2 -16 -21 -35 -41 -32 -32 -139 -92 -250 -140
-49 -21 -265 -93 -303 -100 -93 -19 -247 -44 -307 -49 -154 -14 -414 -4 -520
20 -5 1 -28 5 -50 8 -140 22 -338 88 -505 167 -166 79 -241 130 -302 207 -73
90 -148 197 -148 211 0 6 -4 11 -9 11 -14 0 -186 359 -196 410 -1 3 -11 38
-24 78 -58 189 -85 377 -85 592 1 105 9 247 18 295 7 38 18 105 17 110 0 2 5
19 10 37 5 18 12 47 15 63 8 44 78 250 109 320 156 355 414 668 729 885 32 21
60 31 102 35 32 3 60 8 62 10 7 7 393 -2 432 -9z m-960 -120 c0 -2 -32 -36
-70 -76 -263 -271 -464 -630 -556 -995 -14 -55 -27 -111 -29 -125 -2 -14 -6
-36 -9 -50 -19 -94 -29 -219 -29 -370 0 -186 15 -351 37 -428 3 -9 7 -33 10
-52 3 -19 13 -60 21 -90 9 -30 17 -59 19 -65 24 -88 93 -272 110 -295 9 -13 9
-13 -6 -2 -21 16 -133 185 -187 280 -92 164 -175 387 -210 562 -6 30 -14 66
-16 80 -5 25 -9 54 -22 180 -12 118 -6 351 12 470 33 216 58 291 121 376 52
68 182 206 255 269 75 65 225 171 299 211 19 10 43 26 54 34 10 8 20 14 22 13
2 -1 41 16 86 37 92 43 88 41 88 36z m4007 -143 c144 -247 210 -386 285 -603
16 -47 31 -92 33 -100 2 -8 15 -60 29 -115 25 -96 49 -219 61 -315 16 -129 19
-192 19 -370 0 -250 -9 -345 -50 -545 -54 -263 -105 -416 -210 -643 -19 -41
-34 -78 -34 -83 0 -5 -4 -9 -10 -9 -5 0 -10 -5 -10 -12 0 -32 -161 -288 -269
-428 -88 -114 -106 -134 -256 -285 -174 -175 -321 -292 -527 -419 -59 -36
-112 -66 -118 -66 -5 0 -10 -4 -10 -10 0 -5 -3 -9 -7 -8 -5 1 -53 -21 -108
-48 -139 -68 -261 -119 -268 -113 -2 2 -10 -1 -18 -7 -18 -14 -182 -66 -316
-99 -114 -28 -312 -61 -418 -70 -38 -4 -82 -8 -97 -9 -15 -2 -25 1 -22 5 3 5
10 9 16 9 5 0 24 6 41 14 18 7 57 24 87 36 118 47 320 154 422 222 31 21 61
38 67 38 5 0 11 4 13 8 2 4 25 23 53 42 51 36 67 48 88 65 49 41 105 79 187
125 132 74 332 209 406 275 6 6 36 30 65 55 80 67 267 254 338 339 201 237
383 536 491 801 12 30 26 64 31 75 24 55 95 275 114 355 10 39 45 209 50 240
3 19 7 46 10 60 5 26 14 101 20 160 3 19 6 74 9 123 3 48 7 90 9 95 3 4 1 16
-3 27 -4 11 -4 32 1 47 4 14 5 29 2 31 -3 3 -6 54 -8 114 -5 147 -13 222 -41
398 -11 73 -53 249 -79 335 -15 47 -28 90 -29 95 -2 6 -6 19 -10 30 -5 11 -12
34 -18 50 -6 17 -17 44 -24 62 -8 17 -14 37 -14 45 0 8 -4 19 -10 26 -6 8 -5
8 4 0 8 -7 23 -27 33 -45z m-5801 -538 c-13 -56 -28 -141 -31 -175 -1 -8 -5
-42 -9 -75 -4 -33 -9 -85 -12 -115 -6 -62 -6 -382 0 -450 10 -109 17 -180 22
-202 2 -13 6 -39 9 -58 3 -19 7 -46 10 -60 3 -14 8 -40 11 -59 10 -58 12 -68
44 -186 43 -161 86 -291 135 -400 12 -27 35 -79 51 -115 28 -64 47 -101 107
-210 29 -54 166 -270 177 -280 3 -3 34 -43 70 -90 80 -105 113 -144 212 -247
27 -29 65 -72 85 -95 163 -197 315 -349 483 -483 109 -88 188 -145 199 -145 5
0 11 -3 13 -8 5 -13 165 -110 282 -172 115 -61 201 -100 346 -157 l85 -33 -60
5 c-86 7 -180 21 -275 40 -14 3 -36 7 -50 10 -141 26 -398 113 -575 195 -137
64 -411 229 -471 284 -7 6 -25 20 -40 31 -117 82 -335 296 -457 448 -128 159
-261 370 -344 547 -32 69 -121 295 -128 325 -2 6 -12 42 -25 80 -21 70 -26 85
-35 128 -8 37 -25 120 -30 147 -3 14 -7 36 -10 50 -35 172 -41 648 -11 806 2
12 7 44 11 72 3 29 10 65 15 82 5 16 7 30 5 30 -3 0 -1 10 4 23 5 13 12 39 15
58 13 82 92 323 142 434 10 22 18 42 19 45 1 3 5 13 10 23 14 33 14 12 1 -48z
m5146 -392 c3 -16 15 -68 26 -118 11 -49 24 -112 27 -140 4 -27 8 -61 11 -75
26 -142 25 -600 -2 -732 -2 -13 -7 -39 -9 -58 -9 -54 -12 -72 -21 -115 -4 -22
-9 -42 -9 -45 -15 -73 -71 -269 -98 -340 -28 -77 -52 -116 -126 -210 -141
-178 -347 -362 -532 -474 -52 -31 -101 -61 -109 -66 -8 -5 -28 -16 -45 -24
-16 -7 -55 -25 -85 -39 -49 -23 -208 -85 -235 -91 -5 -2 -30 -8 -55 -15 -25
-7 -52 -15 -60 -16 -165 -36 -202 -42 -310 -51 -36 -2 -85 -7 -109 -9 -54 -5
-48 1 59 55 161 82 340 213 500 366 41 40 116 99 165 132 315 206 577 492 750
817 108 202 201 472 230 668 8 51 17 112 21 137 8 48 11 375 5 427 -7 53 3 66
11 16z m192 -78 c3 -8 1 -15 -4 -15 -6 0 -10 7 -10 15 0 8 2 15 4 15 2 0 6 -7
10 -15z m-4648 -117 c1 -217 20 -366 74 -574 66 -256 186 -511 343 -729 28
-38 53 -72 56 -75 3 -3 24 -27 46 -55 88 -111 255 -268 375 -354 35 -25 105
-85 155 -133 98 -95 118 -112 185 -167 25 -20 47 -38 50 -41 12 -12 199 -140
204 -140 2 0 35 -18 73 -40 38 -21 111 -58 163 -81 52 -23 99 -45 103 -49 16
-14 -253 3 -311 19 -17 5 -33 7 -35 5 -5 -5 -240 51 -272 65 -11 5 -58 24
-105 41 -150 58 -295 138 -446 247 -90 65 -307 280 -377 375 -222 298 -353
635 -384 983 -12 140 -5 438 12 464 2 4 6 29 10 57 3 27 11 67 16 89 6 22 12
45 13 50 7 39 40 145 45 145 4 0 7 -46 7 -102z m4661 50 c4 -28 -6 -18 -12 12
-2 12 -1 20 2 16 4 -4 8 -16 10 -28z m13 -49 c0 -6 -4 -7 -10 -4 -5 3 -10 11
-10 16 0 6 5 7 10 4 6 -3 10 -11 10 -16z m3 -39 c3 -11 1 -18 -4 -14 -5 3 -9
12 -9 20 0 20 7 17 13 -6z m17 -64 c0 -3 -4 -8 -10 -11 -5 -3 -10 -1 -10 4 0
6 5 11 10 11 6 0 10 -2 10 -4z m-4950 -671 c0 -8 -2 -15 -4 -15 -2 0 -6 7 -10
15 -3 8 -1 15 4 15 6 0 10 -7 10 -15z m6 -51 c1 -9 0 -13 -4 -10 -3 4 -7 14
-8 22 -1 9 0 13 4 10 3 -4 7 -14 8 -22z m62 -299 c0 -16 -2 -15 -8 5 -11 34
-11 60 0 35 5 -11 8 -29 8 -40z m22 -51 c0 -45 177 -420 231 -488 5 -6 37 -49
71 -96 81 -109 96 -126 193 -224 175 -177 329 -289 550 -401 140 -71 357 -150
465 -169 14 -2 48 -9 75 -15 219 -46 525 -48 753 -5 91 17 103 18 147 10 172
-30 531 -25 688 10 16 3 38 7 50 9 64 8 282 69 367 102 8 4 17 7 20 8 88 30
371 177 378 197 2 4 8 8 13 8 8 0 62 36 150 99 38 27 26 5 -50 -89 -77 -96
-250 -275 -330 -343 -91 -77 -381 -192 -661 -263 -52 -14 -108 -26 -125 -28
-16 -3 -59 -9 -95 -15 -163 -26 -273 -35 -445 -35 -181 1 -336 13 -453 35 -29
6 -68 12 -86 15 -18 2 -87 18 -152 34 -66 17 -126 33 -134 35 -23 5 -193 65
-215 75 -11 5 -63 28 -115 51 -85 36 -144 66 -275 139 -80 44 -292 191 -375
260 -137 114 -196 175 -264 273 -54 78 -210 340 -212 357 0 3 -15 37 -33 75
-42 88 -80 184 -120 301 -34 100 -36 108 -21 99 6 -3 10 -13 10 -21z m1887
-998 c54 -14 123 -28 153 -31 30 -4 62 -9 71 -10 39 -8 202 -18 274 -18 93 1
274 12 284 17 4 3 34 7 66 11 33 3 105 17 160 30 115 27 111 19 -30 -51 -49
-25 -95 -50 -102 -56 -7 -6 -13 -7 -13 -3 0 4 -7 2 -15 -5 -8 -7 -15 -9 -15
-4 0 5 -4 4 -8 -2 -4 -6 -65 -30 -137 -53 -106 -35 -138 -41 -175 -36 -58 8
-200 44 -222 56 -10 5 -23 9 -29 9 -28 0 -303 121 -354 156 -26 18 -22 18 92
-10z m-465 -712 c24 -9 52 -19 63 -24 28 -11 155 -48 185 -54 14 -3 41 -10 60
-15 43 -14 217 -48 285 -56 28 -4 61 -8 75 -11 93 -17 417 -23 581 -11 124 9
323 37 384 54 13 3 17 2 10 -5 -16 -16 -241 -98 -360 -130 -60 -17 -158 -40
-218 -51 -97 -19 -129 -20 -207 -6 -14 3 -43 8 -65 11 -22 3 -43 8 -46 10 -3
2 -19 6 -35 8 -54 10 -69 14 -99 26 -16 6 -32 11 -35 11 -18 -3 -294 90 -335
112 -11 6 -26 12 -33 13 -20 3 -262 122 -262 129 0 8 5 7 52 -11z"/>
<path d="M2322 3784 c-37 -29 -41 -53 -11 -80 18 -16 20 -27 16 -69 -3 -27 -8
-60 -11 -71 -9 -41 -24 -138 -31 -199 -3 -25 -13 -46 -26 -56 -21 -15 -19 -46
2 -34 5 4 9 -25 9 -70 0 -88 15 -105 57 -62 22 21 24 29 16 54 -5 15 -6 44 -3
63 4 30 9 35 43 42 63 13 183 76 216 113 37 42 47 91 32 151 -21 82 -93 165
-186 211 -67 34 -87 35 -123 7z m142 -125 c31 -29 64 -65 72 -82 19 -36 20
-112 3 -133 -23 -28 -117 -83 -154 -90 -35 -6 -36 -6 -31 22 12 65 19 90 28
102 6 6 8 12 4 12 -3 0 -1 12 5 28 30 74 37 118 22 145 -7 15 -18 27 -23 27
-6 0 -10 5 -10 10 0 22 29 7 84 -41z"/>
<path d="M3212 3784 c-37 -29 -41 -53 -11 -80 17 -16 20 -26 15 -68 -4 -27 -9
-52 -11 -56 -3 -5 -7 -30 -10 -57 -3 -26 -7 -59 -11 -73 -3 -14 -7 -47 -10
-75 -4 -35 -12 -55 -27 -68 -21 -17 -21 -18 -4 -31 13 -10 18 -26 17 -48 -4
-71 0 -99 16 -105 23 -9 70 44 58 66 -8 15 -10 36 -6 86 1 13 10 21 23 22 25
2 139 49 188 77 18 11 46 39 61 63 49 77 25 177 -64 264 -45 45 -120 91 -166
102 -18 4 -34 -1 -58 -19z m163 -148 c42 -42 53 -60 62 -103 13 -67 3 -88 -61
-130 -48 -33 -121 -61 -132 -51 -4 5 14 93 30 143 1 6 11 37 21 70 22 71 21
78 -13 123 l-27 35 35 -18 c18 -10 57 -41 85 -69z"/>
<path d="M3613 3784 c-38 -30 -42 -53 -12 -80 21 -19 22 -39 5 -120 -2 -12 -7
-45 -11 -75 -4 -30 -8 -56 -10 -59 -2 -3 -6 -32 -9 -65 -5 -45 -12 -64 -29
-78 -21 -17 -21 -18 -4 -31 13 -10 18 -26 17 -48 -6 -104 10 -130 56 -87 20
18 23 29 18 52 -3 16 -7 37 -9 46 -2 18 7 50 15 50 6 -1 104 37 150 58 122 55
160 137 118 252 -24 64 -99 141 -173 176 -78 37 -87 37 -122 9z m182 -167 c21
-24 36 -56 42 -87 15 -72 -2 -98 -90 -143 -89 -46 -109 -48 -102 -9 11 63 18
88 27 100 6 6 8 12 5 12 -3 0 3 25 14 57 24 71 24 98 -1 130 -11 14 -20 30
-20 35 0 15 89 -53 125 -95z"/>
<path d="M4259 3688 c-30 -51 -72 -128 -93 -170 -22 -43 -42 -78 -47 -78 -18
0 -42 128 -43 231 -2 92 -23 113 -85 79 -16 -8 -21 -21 -21 -49 0 -21 3 -41 6
-44 4 -4 8 -25 10 -48 6 -65 33 -150 66 -203 16 -27 27 -56 25 -65 -3 -9 -16
-46 -30 -82 -29 -77 -23 -100 24 -94 40 5 62 24 56 47 -12 43 61 215 129 306
40 52 84 155 91 211 5 46 4 51 -13 51 -14 0 -36 -27 -75 -92z"/>
<path d="M2894 3743 c-27 -13 -55 -31 -61 -40 -17 -22 -30 -7 -16 17 10 14 9
21 -3 31 -17 14 -33 -2 -61 -61 -9 -19 -38 -81 -65 -138 -48 -102 -57 -132
-38 -132 6 0 10 6 10 13 0 9 2 9 9 -1 4 -8 4 -33 0 -57 -25 -135 39 -217 151
-191 65 15 113 48 199 136 72 73 117 225 90 299 -15 40 -58 98 -86 117 -50 32
-77 34 -129 7z m73 -93 c72 -43 88 -153 38 -255 -46 -95 -169 -171 -222 -137
-32 20 -42 128 -22 248 14 86 34 118 93 145 52 24 73 24 113 -1z"/>
<path d="M3758 2854 c-36 -19 -46 -58 -22 -85 25 -28 25 -35 3 -157 -11 -59
-22 -132 -25 -162 -4 -36 -14 -63 -28 -78 -19 -21 -19 -24 -4 -33 12 -7 16
-21 14 -62 -3 -55 7 -97 23 -97 6 0 21 12 34 26 22 23 24 31 15 61 -15 56 -3
90 37 97 54 10 188 82 211 113 47 64 49 124 8 210 -29 60 -103 128 -176 161
-56 26 -55 26 -90 6z m93 -104 c96 -82 121 -123 118 -197 -3 -51 -23 -71 -117
-118 -62 -31 -87 -28 -73 9 6 13 8 26 5 29 -2 2 1 17 7 33 6 16 22 65 34 108
25 83 23 97 -13 139 -13 15 -13 17 0 17 8 0 26 -9 39 -20z"/>
<path d="M2565 2834 c-35 -36 -82 -196 -75 -259 5 -48 1 -94 -15 -165 -3 -14
-8 -52 -11 -86 -4 -49 -2 -64 11 -78 28 -28 142 -14 222 28 23 11 30 22 30 45
0 35 -10 38 -55 16 -17 -9 -51 -18 -76 -20 -55 -6 -66 8 -55 69 4 22 10 59 13
80 9 53 15 83 31 136 8 25 16 65 20 90 3 25 9 61 13 80 4 19 7 41 6 48 -1 6
-2 17 -3 22 -2 16 -38 12 -56 -6z"/>
<path d="M2988 2815 c-21 -8 -50 -25 -65 -39 -29 -27 -50 -35 -36 -13 11 18
15 57 5 57 -19 0 -42 -29 -67 -85 -15 -33 -45 -98 -66 -143 -39 -83 -47 -112
-31 -112 4 0 14 6 21 13 11 10 12 6 6 -21 -20 -97 -10 -166 32 -208 24 -24 31
-25 81 -20 75 8 133 44 220 136 31 33 83 126 89 160 14 75 9 124 -16 172 -26
51 -78 101 -116 111 -11 3 -37 -1 -57 -8z m57 -107 c94 -74 75 -244 -39 -342
-82 -70 -142 -72 -168 -6 -21 55 0 274 31 308 29 32 85 62 117 62 17 0 44 -10
59 -22z"/>
<path d="M3465 2818 c-16 -6 -47 -23 -67 -39 -46 -36 -49 -36 -35 1 6 16 8 32
4 36 -15 15 -40 -9 -63 -63 -14 -32 -35 -77 -45 -100 -10 -24 -19 -46 -19 -49
0 -3 -8 -18 -19 -32 -19 -29 -35 -92 -23 -92 5 0 14 6 21 13 10 10 11 3 5 -38
-14 -96 -4 -152 37 -188 28 -26 37 -28 79 -24 49 5 123 38 137 60 4 7 20 20
35 30 42 27 104 116 126 182 27 78 22 159 -12 213 -24 39 -80 92 -96 92 -5 0
-14 2 -22 4 -7 3 -26 0 -43 -6z m44 -103 c41 -21 75 -105 68 -166 -8 -61 -40
-125 -86 -170 -45 -44 -69 -57 -113 -64 -41 -7 -62 12 -73 65 -19 87 9 268 46
300 55 48 110 60 158 35z"/>
</g>
</svg>
