<?xml version="1.0" encoding="utf-8"?>
<!-- Generator: Adobe Illustrator 22.1.0, SVG Export Plug-In . SVG Version: 6.00 Build 0)  -->
<svg version="1.1" id="Шар_1" xmlns="http://www.w3.org/2000/svg" xmlns:xlink="http://www.w3.org/1999/xlink" x="0px" y="0px"
	 viewBox="0 0 142 138" style="enable-background:new 0 0 142 138;" xml:space="preserve">
<style type="text/css">
	.st0{fill:#D81414;}
	.st1{fill:#FFF9B0;}
	.st2{fill:#AAAAAA;}
	.st3{fill:#1A1C20;}
</style>
<polygon class="st0" points="58.1,9.1 55.9,13.4 55.4,14.8 52.9,13.9 50,13.9 48.2,14.8 49,18.3 54.2,21.9 56.9,23.1 58.1,23.1 
	59.9,20.6 60.5,16.1 60.5,11.6 "/>
<polygon class="st0" points="62,33.1 59.9,30 57.6,30.5 57.6,33.8 59.8,37.8 60.5,39.4 61.5,40.1 64.4,36.8 66,35.1 66,33.4 
	66,31.5 "/>
<polygon class="st1" points="37.8,25.2 34.3,27.2 35,41.7 29.2,33.4 25.2,28 21.6,28.6 19.5,31 21.6,38.5 26.4,44.1 27.8,45 
	25.7,47.2 19.5,53.1 16.5,59.2 16.5,67.6 23.2,75.8 28.8,78.9 34.3,78.9 44.3,78.3 44.3,80.7 46.5,84.6 49,85.7 54.2,83 60.5,80 
	64.7,76 63.5,72 60.5,70.1 58.1,65.1 57.2,62.5 55.9,57.5 54.8,54.6 49.8,49.7 45.1,46.3 42.5,45 43.7,44.1 43.5,39.4 44.3,33 
	40.6,26 "/>
<polygon class="st1" points="24.1,110 28.7,110 34.5,110 43.4,108.9 46.5,110 47.5,114.6 47.5,120 46.6,123.7 42.8,124.6 
	40.6,122.6 39.8,118.4 39,114 38.3,111 33,111 31.2,117.3 30.2,122.3 28.6,123.7 24.9,124.6 23.3,123.1 23.3,116.7 "/>
<polygon class="st2" points="28.8,79.9 32.9,79.9 40.9,79.9 43.4,80.3 45.1,85.3 47,92 49,98.2 49.8,107.8 47,108.9 35.5,109.5 
	25.8,109.8 20.4,107.8 21.6,100.1 "/>
<polygon class="st0" points="95.5,25.2 104.9,25.2 104.9,30 96,31 "/>
<g transform="translate(0.000000,138.000000) scale(0.100000,-0.100000)">
	<path class="st3" d="M559,1271c-9-26-14-29-33-21c-13,4-29,4-39-1c-39-22-6-73,65-103c36-14,38-14,50,7c18,33,16,126-2,137
		C576,1305,570,1302,559,1271z M598,1218c-3-26-8-51-12-55c-10-11-96,35-96,51c0,23,14,26,44,10c37-18,36-19,36,14c0,32,8,44,23,35
		C598,1270,600,1245,598,1218z"/>
	<path class="st3" d="M351,1134c-21-15-23-23-19-75l4-58l-28,49c-31,54-58,74-88,65c-50-16-47-67,9-148l29-43l-34-28
		c-66-52-90-138-60-209c13-32,78-97,96-97s11-37-24-128c-48-125-53-156-28-173c16-12,19-25,18-86l-1-73h-62c-35,0-63-4-63-10
		c0-7,208-10,605-10s605,3,605,10c0,6-37,10-90,10h-90v33c0,42-9,51-30,32c-15-14-19-14-29-1c-7,8-19,12-27,9c-12-4-14,33-14,246
		v251h115h115v116c0,114,0,116-29,145s-31,29-140,29H980v35c0,34,1,35,40,35h40v40v40h-60h-60v-75v-75h-73c-65,0-76-3-97-25
		c-13-13-26-41-29-61c-6-36-7-37-85-60c-44-13-83-24-87-24s-16,15-27,33c-12,17-39,43-61,57c-37,23-40,27-34,61c8,54-14,146-40,164
		C380,1154,380,1154,351,1134z M405,1111c12-20,24-113,18-141c-9-48-38-39-57,17c-16,48-21,114-9,126C366,1123,398,1121,405,1111z
		 M1040,1100c0-17-7-20-40-20s-40,3-40,20s7,20,40,20S1040,1117,1040,1100z M301,1017c27-57,28-63,12-74c-9-7-20-13-24-13
		c-11,0-59,67-74,104c-13,31-13,37,1,50C240,1109,268,1087,301,1017z M875,945c23-23,25-31,24-127c0-57-3-96-7-88c-3,8-17,49-31,90
		c-15,41-31,74-36,73c-6-1-23-5-38-8c-23-6-27-4-27,16c0,30,38,69,67,69C840,970,862,959,875,945z M940,921c0-28-4-53-10-56
		c-6-4-10,5-10,20c0,14-7,39-15,55c-15,29-15,30,10,30C938,970,940,967,940,921z M1219,944c18-23,21-41,21-125v-99h-160H920v55
		c0,52,1,54,19,43c36-22,49,3,43,82l-5,70h111C1196,970,1199,969,1219,944z M443,906c44-18,95-78,103-122c16-85-63-180-159-191
		c-69-8-114,4-157,43c-90,81-71,206,38,264C312,923,396,926,443,906z M847,776c14-43,21-82,16-86c-4-4-52-21-105-38
		c-72-22-98-26-98-17c0,8-13,24-29,37s-35,44-44,70l-15,47l46,15c25,9,47,16,48,16s10-22,19-50c15-47,18-50,43-44c15,4,28,8,30,9
		c1,1-5,24-13,50c-8,27-13,50-12,52c9,8,55,22,71,20C819,855,829,837,847,776z M964,839c-3-5-10-7-15-3c-5,3-7,10-3,15
		c3,5,10,7,15,3C966,851,968,844,964,839z M729,793c8-28,7-39-2-45c-6-4-15-4-18,0c-11,13-27,70-22,76C703,839,720,827,729,793z
		 M563,665c-24-18-26-13-12,19c11,23,14,25,22,11C579,683,577,675,563,665z M960,444c0-228-2-255-15-244c-13,10-19,10-34-4
		c-16-15-20-15-31-1c-18,21-30,9-30-31v-34H668H485l-1,75c0,52,4,76,13,79c18,7,17,84-3,158c-8,33-14,61-12,63c2,1,34,13,72,25
		c38,13,79,33,90,45c13,14,62,34,135,56c82,24,115,39,119,52c3,11,14,17,33,17h29V444z M1010,449c0-164-3-248-10-244
		c-14,8-14,495,0,495C1006,700,1010,610,1010,449z M630,644c17-20-4-40-88-84c-59-31-64-32-80-17c-15,16-15,18,0,33
		c20,20,129,83,144,84C612,660,623,653,630,644z M471,445c10-38,19-86,19-107v-36l-86-7c-95-8-170-3-186,13c-7,7,3,49,33,136l44,125
		l65,3c64,3,65,2,79-27C446,529,461,484,471,445z M306,218c-8-59-24-82-49-72c-18,7-20,26-11,87c6,33,10,37,37,37h30L306,218z
		 M385,213c4-31,9-62,12-70c4-10-7-13-42-13c-36,0-46,3-42,14c3,7,9,35,12,62c9,60,11,64,34,64C374,270,379,259,385,213z M464,239
		c10-50,7-76-10-89c-23-20-41,5-49,68l-7,52h30C453,270,458,265,464,239z M948,168c8-8,15-8,26,1c11,10,19,9,34,0c16-10,23-10,35,0
		c10,8,17,9,22,1c3-5,15-10,26-10c10,0,19-7,19-15c0-22-225-22-234,0c-3,10,1,15,14,15c10,0,22,5,25,10C923,183,933,183,948,168z"/>
	<path class="st3" d="M424,769c-9-15,11-33,30-26c9,4,13,13,10,22C457,782,434,785,424,769z"/>
	<path class="st3" d="M803,730c-23-9-31-34-14-44c17-11,63,13,59,31C844,738,831,741,803,730z M839,706c-2-2-14-7-26-10
		c-17-6-23-3-23,8c0,9,6,13,14,10s18,0,22,7c6,11,8,11,12,0C840,714,840,707,839,706z"/>
	<path class="st3" d="M577,1083c-18-17-4-70,30-112c8-10,63,55,63,74c0,29-10,37-27,24c-10-9-18-8-31,5C592,1092,586,1093,577,1083z
		 M610,1044l10-26l20,24c11,12,19,18,20,11c0-7-11-24-24-39l-23-28l-17,31c-18,37-20,53-6,53C596,1070,605,1058,610,1044z"/>
</g>
</svg>
