<?xml version="1.0" encoding="utf-8"?>
<!-- Generator: Adobe Illustrator 22.1.0, SVG Export Plug-In . SVG Version: 6.00 Build 0)  -->
<svg version="1.1" id="Шар_1" xmlns="http://www.w3.org/2000/svg" xmlns:xlink="http://www.w3.org/1999/xlink" x="0px" y="0px"
	 viewBox="0 0 142 138" style="enable-background:new 0 0 142 138;" xml:space="preserve">
<style type="text/css">
	.st0{fill:#FFF9B0;}
	.st1{fill:#D81414;}
	.st2{fill:#AAAAAA;}
	.st3{fill:#FFFAFA;}
	.st4{fill:#FCD8D4;}
	.st5{fill:#1A1C20;}
	.st6{fill:#727070;}
</style>
<polygon class="st0" points="84.2,109.8 82.7,112.3 82.7,118 82.7,123.5 85.2,125 89,123.8 91.4,116.1 91.4,112.3 92.4,110.4 
	97,110.9 98.2,114.5 100.1,122.6 101.5,124.5 106.7,123.8 107.1,121.3 106.7,111.8 105.9,109.4 89,109.4 "/>
<path class="st0" d="M99,45l3.8-7.8l1-8.6l-3.5-3.8l-4.8,2.5L94,25.4L89,26l-1.9,4.5v7.7l1.3,5.7l0.5,2.3l-5.7,3.3l-4.6,4.1
	l-1.4,2.3l3.9,1.9l1.3,2.9L82,65.5l-1,2.3l-6.3-1.4l-3,2.3h-3.2l-2.7,2.1l-0.5,1.8l2.9,1.8l6.6,2.7l3.8,1.1c0,0,5.2,4.5,5.2,4.4
	s2.3,2.1,2.3,2.1l2.5-0.4l3.4-3.6l9.3-0.5l8.8-6.3l4.1-5.3l1.6-6.7c0,0-1.1-6.3-1.9-6.8s-7.4-7.1-7.4-7.1l-4.8-1.9L99,45z"/>
<path class="st1" d="M72.8,34c0,0-1.1-1.7-1.4-2.1C71.1,31.6,70,31,70,31l-1.5,1l-0.3,1l0.8,3.4l2,3.8h1.6l3.3-2.9l1.2-2.7v-1.7
	l-2.7,0.3L72.8,34z"/>
<path class="st1" d="M75.4,16.6l-3.6-3.1h-2.3L68.2,15l-0.4,1.5c0,0,0.5,1.2,0.8,1.4c0.3,0.2,1.8,1.8,2,2.2c0.3,0.4,3.8,3.3,3.8,3.3
	l1.7,1.9c0,0,2.4-0.8,2.4-1.4s2.5-6,2.5-6l0.4-4.5l-0.9-1.8h-1.6l-1.3,1.1L75.4,16.6z"/>
<polygon class="st2" points="24,42.1 46.7,45.1 49.7,49.1 61.4,50.3 69.5,54.9 72.3,56.4 77.9,56.7 81.8,59.5 81.4,67.1 74.7,66.4 
	71,68.1 67.4,69 63.3,71.3 55.2,71.3 49,70.4 43.1,72.6 21,70.4 16.9,67.7 15.7,63.9 15.1,58 15.9,53.6 18.2,47.2 21.6,42.8 "/>
<polygon class="st3" points="23.8,46.2 20.6,49.1 19.4,53.3 18.6,59.5 19.9,65.8 21.2,67.1 25.5,62.3 27.3,53.3 25.9,46.6 "/>
<polygon class="st4" points="91.2,81.5 86.6,85.8 82.8,95.2 79.6,107.5 86.2,109.8 108.2,109.8 109.9,107.1 106.8,89.9 104.4,80.7 
	100.2,80.1 "/>
<g transform="translate(0.000000,138.000000) scale(0.100000,-0.100000)">
	<path class="st5" d="M769,1257c-11-24-12-24-39-9c-23,14-31,14-44,3c-9-7-16-23-16-34c0-22,73-97,94-97c22,0,58,76,54,117
		C814,1283,786,1294,769,1257z M791,1185c-11-25-22-45-25-45c-12,0-76,63-76,75c0,26,20,26,45,0l26-25l15,37c14,31,17,34,25,20
		C808,1235,805,1217,791,1185z"/>
	<path class="st5" d="M880,1125c-18-22-23-93-11-145c9-39,8-46-7-55c-9-5-37-29-61-52c-51-50-85-55-116-18c-16,19-35,26-99,35
		c-56,7-85,16-98,29c-22,25-31,27-157,42l-105,12l-32-35c-66-73-67-235-1-265c13-6,71-16,129-24c101-12,109-12,128,6
		c18,17,27,17,104,6c52-7,106-22,145-41c34-17,65-30,69-30c4-1,24-16,45-35l38-33l-36-105c-35-102-37-137-9-137c11,0,13-16,11-75
		l-2-75H453c-235,0-363-4-363-10c0-7,210-10,610-10s610,3,610,10c0,6-47,10-120,10c-108,0-120,2-112,16c5,9,7,37,4,64
		c-3,34,1,55,13,73c19,30,17,58-20,205l-23,93l30,22c69,50,99,158,64,226c-19,36-79,89-111,97c-30,7-30,10-5,65c24,53,26,112,4,133
		c-18,19-45,21-62,4c-9-9-15-9-24,0C931,1145,895,1143,880,1125z M938,1108c7-7,8-17,1-29c-5-10-12-45-16-79c-3-33-9-60-14-60
		c-11,0-29,67-29,108C880,1107,909,1137,938,1108z M1020,1105c27-32-18-158-58-163c-18-3-22,1-22,25c1,45,20,116,37,135
		C997,1124,1004,1124,1020,1105z M348,939c53-6,105-15,114-20c24-13,41-82,33-133c-9-52-43-114-68-122c-34-11-219,18-238,37
		c-41,41-31,172,16,223C233,954,224,953,348,939z M1012,910c21-6,51-22,68-37c116-97,54-262-107-288c-42-7-44-6-95,51
		c-52,56-53,59-50,109c3,46,1,55-19,69l-24,16l31,31C867,912,939,930,1012,910z M530,827c0-37-20-116-31-123c-5-3-4,7,2,23
		c6,15,11,56,12,91C514,877,530,886,530,827z M668,846c30-29,7-154-30-169c-13-4-118,3-118,8c0,2,7,31,16,65c9,35,13,77,10,95l-6,32
		l57-9C629,863,661,853,668,846z M711,739c-7-23-14-39-15-37c-2,1-1,30,2,63c4,51,6,57,15,37C720,787,719,768,711,739z M784,800
		c21-8,26-16,26-43c0-32-1-33-39-32h-39l1,42C735,812,741,817,784,800z M834,651c38-38,57-65,54-77c-6-35-35-25-91,33
		c-53,54-66,80-50,96C761,718,778,708,834,651z M720,667c0-6,8-19,17-29c16-18,15-18-23-2c-55,23-56,24-44,39
		C682,689,720,684,720,667z M1059,465c12-49,23-108,24-130l2-40H950c-134,0-135,0-138,24c-5,30,54,189,81,219c14,14,33,22,56,23
		c20,0,45,4,56,8C1030,579,1032,576,1059,465z M903,233c-12-76-18-88-44-88c-23,0-24,3-21,50c3,68,7,75,41,75
		C908,270,909,269,903,233z M974,238c3-18,7-50,10-70l5-38h-44h-43l8,33c4,17,11,49,15,70c4,28,11,37,25,37S970,261,974,238z
		 M1058,207c2-45,0-59-13-63c-26-10-42,16-47,74l-5,53l31-3C1054,265,1055,264,1058,207z"/>
	<path class="st5" d="M205,907c-34-53-36-177-3-198c18-12,29-7,52,24c24,32,34,142,17,176C256,937,224,936,205,907z M255,832
		c0-60-3-75-22-94l-22-22l-12,30c-13,32,1,125,22,150C244,924,255,904,255,832z"/>
	<path class="st5" d="M852,743c5-26,38-29,38-4c0,15-6,21-21,21C855,760,850,755,852,743z"/>
	<path class="st5" d="M680,1065c-10-12-8-23,10-60c21-43,23-45,44-32c47,31,64,112,17,88c-14-8-22-7-31,4
		C704,1084,696,1084,680,1065z M710,1053c0-5,4-14,9-22c8-12,12-13,25-1c9,7,19,11,21,8c6-6-33-48-44-48c-8,0-31,44-31,60
		C690,1062,710,1064,710,1053z"/>
</g>
<path class="st6" d="M129.6,88.4"/>
<path class="st6" d="M10.2,46.2"/>
</svg>
