<?xml version="1.0" encoding="utf-8"?>
<!-- Generator: Adobe Illustrator 22.1.0, SVG Export Plug-In . SVG Version: 6.00 Build 0)  -->
<svg version="1.1" id="Шар_1" xmlns="http://www.w3.org/2000/svg" xmlns:xlink="http://www.w3.org/1999/xlink" x="0px" y="0px"
	 viewBox="0 0 143 138" style="enable-background:new 0 0 143 138;" xml:space="preserve">
<style type="text/css">
	.st0{fill:#FFF9B0;}
	.st1{fill:#AAAAAA;}
	.st2{fill:#D81414;}
	.st3{fill:#D81414;stroke:#000000;stroke-miterlimit:10;}
	.st4{fill:#1A1C20;}
	.st5{fill:#F967A9;}
</style>
<polygon class="st0" points="55.5,109.1 53.6,111 53.1,114.5 52.4,121.5 54,124.3 55.5,124.3 57.9,123.7 58.4,120.1 58.4,113.6 
	58.4,111 "/>
<polygon class="st0" points="75,82 78,83 81.5,85.8 85,90 88.7,92.3 89.7,94.5 88.7,97.6 87,98.9 84,98.5 81,97.1 79.5,95.4 78,93 
	75.8,88.9 "/>
<polygon class="st0" points="51.6,78.7 48.4,80.5 46.2,81 42.9,83 42.9,85.3 44.1,86.6 45,86.6 45,88 44.9,88.9 46.2,89 48,90 
	50.4,88 54.2,86.6 56,84.4 56.9,81 56.3,79.7 54.2,78.7 "/>
<polygon class="st0" points="79.6,26.1 76.7,28.1 74.4,31.8 72.5,36 71.5,40.6 70.9,42.8 70,43.8 65.1,44.2 60.4,44.2 59.6,42.3 
	59.6,37.2 58.4,31 55.9,26.8 52.1,26.1 50.1,28.1 50.1,31.8 50.1,34.7 51.3,40.7 53.2,44.8 54.2,46.4 52.8,47.8 50.9,49.1 
	47.6,53.4 46.2,57.8 44.9,63.9 47,70 49.3,72.9 52.4,76.3 56.3,78.1 59.6,79.1 65.1,79.7 70.8,78.7 76.7,76.3 81.3,72.1 84.4,66.3 
	85,61 84,55.5 83,53.6 80.2,50.5 77.6,48.6 76.7,46.8 77.6,44 79.8,40 82,35.1 83.6,30.4 83.6,27.6 81.2,26.1 "/>
<polygon class="st1" points="58.4,80.5 54.8,88 53.1,94 50.4,103 49.7,105.2 49.7,107.2 51,108.6 54.1,109.1 56.9,109.1 58.4,109.5 
	59.1,102.1 63.3,101.9 79.5,101.3 78.6,97.1 76.7,91.7 73.7,79.7 "/>
<polygon class="st2" points="75,103 85.8,101.3 87,103 87.6,109.5 87.6,118.3 87.3,124.3 86.3,125.3 77.3,125.3 71.5,125.6 
	64.2,125.6 59.7,125.3 59.3,122.7 59.1,102.1 "/>
<polygon class="st2" points="92.9,96.1 89.7,97.6 88.9,99.4 91,105.3 95.4,109.8 97.6,113.4 98.8,117 102.8,122.2 105.1,124.3 
	108,122.9 108.9,121.2 105.5,114 "/>
<polygon class="st3" points="96.5,54.8 94.3,50.1 92.9,49.1 90.8,51.9 90.8,57.3 92.3,61.9 93.7,63.9 97.7,63 101,60.9 103.8,58.2 
	105.6,55.6 103.8,53.9 102.6,53.4 99.8,53.8 "/>
<g transform="translate(0.000000,138.000000) scale(0.100000,-0.100000)">
	<path class="st4" d="M502,1118c-18-18-15-101,6-156l19-48l-25-18c-13-10-33-39-44-64c-29-64-21-130,22-183c17-22,30-42,29-43
		c-2-2-18-10-34-19c-29-14-32-14-53,8c-12,12-22,32-22,44s-6,21-15,21s-15-9-15-25c0-29-7-31-32-9c-16,16-18,15-24,0
		c-4-10-2-22,5-29c6-6,11-23,11-38s7-32,15-39c9-7,13-21,10-31c-4-12-1-19,7-19s21-16,28-35c15-38,47-45,42-10c-2,18-2,19,8,3
		c16-27,33-22,27,8c-4,21,1,29,27,45c17,10,34,19,38,19s-7-36-23-80c-34-95-36-114-10-132c16-12,19-25,18-83l-2-70l-205-5
		c-129-3-204-9-202-15c1-7,212-10,607-10c397,0,605,3,605,10c0,6-37,11-85,13c-66,2-85,6-85,17c0,8-14,30-31,50c-27,30-28,35-12,35
		c25,0,43,19,43,45c0,30-19,45-57,45c-30,0-33,2-23,19c15,30,12,78-6,85c-29,11-53,6-67-14c-13-18-14-18-25,14c-7,18-21,41-32,51
		c-26,23-26,10,0-22c11-14,20-33,20-42c-1-14-2-14-11,2c-5,9-13,17-17,17s-40,32-80,70c-40,39-79,70-87,70c-25,0-17,17,19,45
		c63,48,92,142,65,212c-5,15-24,42-40,59l-29,30l35,68c19,37,35,78,35,90c0,64-68,75-107,18c-12-18-27-58-33-88l-11-54h-43h-43
		l-6,60c-9,82-30,120-65,120C526,1130,509,1125,502,1118z M569,1088c29-76,22-158-14-158c-25,0-57,125-42,164
		C522,1118,559,1114,569,1088z M825,1089c7-22-51-151-70-156c-27-7-36,13-25,63C750,1090,807,1145,825,1089z M712,920
		c74-21,128-89,128-161c0-104-133-190-247-160c-109,30-162,136-113,231C520,909,616,946,712,920z M387,618c-3-7-5-2-5,12s2,19,5,13
		C389,636,389,624,387,618z M340,610c0-5-2-10-4-10c-3,0-8,5-11,10c-3,6-1,10,4,10C335,620,340,616,340,610z M414,584
		c21-20,20-27-3-48c-42-38-96,8-56,48C376,604,394,604,414,584z M560,573c0-27-11-38-57-62c-50-25-60-26-43-6c10,12,8,16-11,23
		c-25,10-21,14,41,44C537,594,560,594,560,573z M740,540c24-93,40-158,40-164c0-3-44-7-97-8l-98-3l-3-37c-3-36-4-37-35-31
		c-18,3-36,9-41,14s2,40,18,86c16,43,35,101,44,128l16,50h73h74L740,540z M874,451c21-23,15-51-11-51c-28,1-79,51-87,85
		c-4,17-10,39-13,50c-4,14,7,8,43-22C833,491,863,463,874,451z M450,470c0-6-44-30-55-30s-4,69,8,73C414,518,450,486,450,470z
		 M380,490c0-5-5-10-11-10c-5,0-7,5-4,10c3,6,8,10,11,10C378,500,380,496,380,490z M1061,404c11-13,10-22-6-52c-27-48-41-50-49-8
		C995,404,1029,442,1061,404z M820,395c7-8,21-15,31-15c16,0,89-101,173-237c5-10-11-13-68-13h-76v114c0,122-2,126-55,126
		c-14,0-25,7-28,20C791,414,802,416,820,395z M981,333c11-20,10-25-7-37c-18-14-21-11-52,37c-30,49-31,53-15,65c16,11,21,9,40-14
		C959,369,974,346,981,333z M720,243V135l-60,3l-60,4v104v104h60h60V243z M870,247c0-57-2-106-4-108s-29-2-60-1l-56,4v104v104h60h60
		V247z M1134,288c8-14,7-21-6-34c-14-15-19-15-52,1c-43,21-53,34-35,46C1063,315,1122,307,1134,288z M1080,168c0-4-8-12-18-17
		c-16-8-24-1-52,46c-33,54-33,56-15,69s22,10,52-38C1065,199,1080,173,1080,168z M578,208c-3-62-11-75-37-59c-10,7-12,22-7,65
		c6,47,11,56,27,56C579,270,581,264,578,208z M1133,149c4-16,0-19-31-19c-34,1-35,2-19,15c14,10,17,20,12,37c-7,22-7,23,13,5
		C1119,177,1130,160,1133,149z"/>
	<path class="st4" d="M544,715c-7-18,3-35,21-35s26,25,12,39C562,734,550,733,544,715z"/>
	<path class="st4" d="M724,715c-7-18,3-35,21-35c21,0,28,19,15,35C744,734,731,734,724,715z"/>
	<path class="st4" d="M355,550c-3-5-1-10,4-10c6,0,11,5,11,10c0,6-2,10-4,10C363,560,358,556,355,550z"/>
	<path class="st4" d="M906,878c-9-12-16-29-16-38c0-25,19-85,33-104c13-17,16-17,65,8c63,32,88,65,72,95c-12,23-26,26-64,12
		c-22-9-26-7-35,20C949,906,927,908,906,878z M949,823c1-28,6-28,38-3c34,27,55,26,51-2c-3-25-80-74-98-63c-19,12-32,83-19,107
		c12,22,12,22,20,3C945,854,949,835,949,823z"/>
</g>
<path class="st5" d="M169,52.9"/>
</svg>
