<?xml version="1.0" encoding="utf-8"?>
<!-- Generator: Adobe Illustrator 22.1.0, SVG Export Plug-In . SVG Version: 6.00 Build 0)  -->
<svg version="1.1" id="Шар_1" xmlns="http://www.w3.org/2000/svg" xmlns:xlink="http://www.w3.org/1999/xlink" x="0px" y="0px"
	 viewBox="0 0 142 138" style="enable-background:new 0 0 142 138;" xml:space="preserve">
<style type="text/css">
	.st0{fill:#FCD8D4;}
	.st1{fill:#FFF9B0;}
	.st2{fill:#D81414;}
	.st3{fill:#1A1C20;}
</style>
<polygon class="st0" points="99,20.8 109.8,27 117.9,30 124.6,31.6 129.8,32.2 129.8,34.5 124.4,42 121,32.9 118.8,31.6 115.4,33.8 
	111,37.8 109.1,31.2 108.5,27.3 105.6,27.3 99,30.1 97.9,31.6 98.5,20.8 "/>
<polygon class="st1" points="53.8,19.9 62.2,21.9 77.5,22.2 88.5,19.9 85,32.1 79.7,24.8 77.5,23 75,25.3 70.8,33 65.9,24 62.8,24 
	56.6,30.1 "/>
<polygon class="st0" points="12.6,36.2 22.8,33 32,28.5 42.5,20.8 44.6,32.2 37.1,28.8 34.4,27.9 32.6,30.6 32.6,39.4 24.5,33.5 
	21.5,34.5 18.8,43.5 "/>
<polygon class="st2" points="88.8,44.3 89.3,47 90,48.4 91.6,48.4 95,48.5 95.6,51 93.1,53.5 87.6,54.4 85.9,54.4 85,52 84.1,49.3 
	85.9,45.1 86.3,44.3 87.4,43.5 "/>
<polygon class="st2" points="70,64.4 60.9,63.8 56.1,64.4 55.3,69 57.4,72 57.6,82.1 57.8,86.1 84,87.3 86.3,65.8 82.5,63.8 "/>
<g transform="translate(0.000000,138.000000) scale(0.100000,-0.100000)">
	<path class="st3" d="M395,1164c-57-50-170-103-248-117c-37-6-67-15-67-19s6-8,13-8c6,0,30-25,52-56c34-48,41-53,51-39
		c7,9,15,36,19,60c3,25,10,47,14,49c4,3,25-13,46-34c55-57,65-53,65,25c0,36,2,65,5,65c2,0,27-14,55-30c28-17,55-28,59-25
		c5,2,2,31-5,62c-8,32-12,68-9,81C452,1208,442,1205,395,1164z M424,1124c3-9,6-24,6-35c0-19-1-19-27-2c-16,9-30,18-32,20
		c-5,4,31,32,40,33C415,1140,421,1133,424,1124z M320,1035c0-41-5-43-37-13c-28,26-29,35-5,41C315,1073,320,1070,320,1035z
		 M196,1014c-3-9-6-24-6-35c0-26-11-23-34,7c-15,22-16,28-5,35C175,1036,203,1032,196,1014z"/>
	<path class="st3" d="M510,1191c0-6,4-12,9-15c5-4,12-25,16-49c14-93,24-98,74-31c18,25,37,42,41,37c4-4,15-30,25-56s22-50,27-53
		s21,22,36,55s30,60,33,61c4,0,21-23,39-50c18-28,38-49,44-47s16,29,22,60s17,63,24,72c20,25,6,28-51,11c-67-20-210-21-275-1
		C516,1202,510,1203,510,1191z M599,1151c11-7,10-13-5-35c-25-34-31-33-36,9C554,1161,568,1170,599,1151z M859,1143c0-10-4-27-8-37
		c-7-17-9-16-29,12c-21,28-21,31-5,35C851,1162,860,1160,859,1143z M723,1105c-17-36-23-34-37,13c-7,19-4,22,23,22h31L723,1105z"/>
	<path class="st3" d="M965,1191c-3-5-1-12,3-15c5-3,4-32-1-66c-5-33-7-63-4-67c4-3,30,8,58,25c27,18,52,32,53,32c2,0,6-27,9-61
		c3-33,8-63,11-67c4-3,28,16,55,42l48,47l17-65c10-37,22-66,26-66c5,0,23,25,40,56c18,30,42,59,53,63c28,11,12,17-62,25
		c-82,9-161,39-235,87C971,1205,973,1203,965,1191z M1044,1122c3-5-8-16-25-26l-29-17v29c0,16,3,32,6,35
		C1003,1150,1036,1135,1044,1122z M1155,1070c2-4-7-18-20-30l-25-23v35c0,31,3,35,20,31C1141,1080,1152,1074,1155,1070z M1284,1038
		c-34-58-38-61-45-42c-16,40-10,54,22,54C1282,1050,1289,1046,1284,1038z"/>
	<path class="st3" d="M700,910c0-27,4-50,9-50c12,0,17,27,13,68C716,978,700,966,700,910z"/>
	<path class="st3" d="M852,938c-12-12-17-100-7-110c10-9,99,12,115,27c21,22,1,51-34,48c-21-1-26,3-26,23C900,952,873,959,852,938z
		 M916,887c27,4,34,2,34-10c0-23-79-44-91-25c-12,18-11,32,3,65l12,28l4-32C881,883,883,882,916,887z"/>
	<path class="st3" d="M630,923c0-4,11-21,24-38c30-37,48-25,20,12C653,924,630,938,630,923z"/>
	<path class="st3" d="M757,902c-30-31-33-42-14-42c12,0,57,51,57,65C800,938,782,928,757,902z"/>
	<path class="st3" d="M604,806c-3-8-7-23-8-32c-2-10-14-21-27-24c-27-7-38-49-20-84c6-12,12-54,13-94l3-72h-77h-78v-50
		c0-47,2-50,25-50h25V265V130H280c-113,0-180-4-180-10c0-7,210-10,610-10s610,3,610,10c0,6-65,10-175,10H970v134c0,132,0,135,23,138
		c19,3,22,9,22,48v45l-80,3l-81,3l4,72c2,40,8,81,13,93c6,11,9,34,7,50c-2,23-8,30-30,32c-21,3-28,9-28,26c0,12-5,27-12,34
		c-18,18-63,14-82-7c-17-19-18-19-37,0C667,823,612,826,604,806z M672,783c24-22,23-33-4-33c-32,0-52,15-45,34
		C631,805,649,804,672,783z M795,790c10-16-15-40-41-40c-28,0-30,7-7,32C765,802,785,805,795,790z M693,710c7-26,2-28-68-26
		c-54,1-60,3-63,24s0,22,61,22C679,730,688,727,693,710z M850,710c0-18-7-20-65-20s-65,2-65,20s7,20,65,20S850,728,850,710z
		 M690,589v-70l-52,3l-53,3l-1,60c-1,33,0,63,3,68c2,4,26,7,54,7h49V589z M830,590v-70h-55h-55v70v70h55h55V590z M990,450
		c0-20-7-20-280-20s-280,0-280,20s7,20,280,20S990,470,990,450z M510,264c0-104-3-135-12-132s-14,42-16,136c-2,113,0,132,13,132
		S510,379,510,264z M890,265V130H715H540v135v135h175h175V265z M940,265c0-113-2-135-15-135s-15,22-15,135s2,135,15,135
		S940,378,940,265z"/>
</g>
</svg>
