<?xml version="1.0" encoding="utf-8"?>
<!-- Generator: Adobe Illustrator 22.1.0, SVG Export Plug-In . SVG Version: 6.00 Build 0)  -->
<svg version="1.1" id="Шар_1" xmlns="http://www.w3.org/2000/svg" xmlns:xlink="http://www.w3.org/1999/xlink" x="0px" y="0px"
	 viewBox="0 0 143 138" style="enable-background:new 0 0 143 138;" xml:space="preserve">
<style type="text/css">
	.st0{fill:#FFF9B0;}
	.st1{fill:#D81414;}
	.st2{fill:#1A1C20;}
</style>
<polygon class="st0" points="105,94.2 111.3,98.9 115,104.1 119,108.6 116.5,110.9 112,111.9 108.6,109.9 106,106.3 "/>
<polygon class="st0" points="54,57 41.5,60.5 39,64.9 39,69 39,75 90.5,75 90.5,68.3 71.5,54 "/>
<polygon class="st0" points="83.5,22.1 80.3,22.1 76.1,28.3 74.8,34.6 76.1,37.1 79.1,39.2 82,39.2 85.5,37.8 87.9,32.5 89,25.5 
	85,20.5 "/>
<polygon class="st0" points="51,20.5 47.3,22 45,25.8 45,31.8 48,37.1 54,34.6 56.8,32.5 58.1,27.5 54,22.1 "/>
<polygon class="st0" points="29.8,102.3 26.3,105.2 26.3,108.9 28,111.6 29.8,112.3 31,110.9 31,104.6 "/>
<polygon class="st1" points="102.9,38.4 101.2,40 100.4,43.9 101.7,47.8 102.9,52.1 104.2,52.8 108.1,51.2 112.9,46.8 114.7,42.5 
	114.4,40.8 109.8,42.3 108.1,42.6 "/>
<g transform="translate(0.000000,138.000000) scale(0.100000,-0.100000)">
	<path class="st2" d="M463,1175c-27-19-35-58-25-115c8-42,6-48-23-81c-18-20-40-58-50-85c-23-60-42-84-69-84c-20-1-19-2,6-24
		c19-17,23-27,15-35s-3-11,21-11c30,0,32-2,32-34c0-19,2-41,5-48c4-9-6-17-27-23l-33-10l-5-122c-5-118-6-122-32-143
		c-40-31-39-81,2-110c16-12,29-26,27-33c-1-9,40-13,156-15c86-1,157-7,157-12s-10-10-22-12c-15-2-24-11-26-25c-3-23-4-23-233-25
		c-144-2-229-7-229-13c0-7,208-10,605-10s605,3,605,10c0,6-95,11-259,13l-260,2l-3,23c-2,14-11,23-25,25c-13,2-23,8-23,13
		s66,9,155,9h155v30v29l30-17l29-17l-24-13c-24-12-45-41-45-61c0-6,18-11,40-11h40v43c0,36,4,44,30,59c24,14,30,24,30,52
		c0,29-9,42-65,94l-65,59v86c0,100-6,107-89,107h-50l7,33c4,17,7,66,6,107c-1,78-23,147-58,182c-16,16-16,20,3,57
		c33,64,37,111,11,144c-43,55-106,22-141-74c-19-52-25-60-43-55c-12,4-42,11-67,17c-44,10-48,13-58,54C562,1179,512,1209,463,1175z
		 M533,1143c8-10,18-34,22-53c6-35,6-36-37-47c-23-6-45-10-47-8c-11,12-12,97-1,110C487,1165,513,1164,533,1143z M868,1148
		c17-17,15-50-8-103c-17-41-23-46-43-41c-12,3-30,6-39,6c-22,0-23,25-2,76C804,1154,839,1177,868,1148z M803,720c23-17,52-33,65-37
		c13-3,22-13,22-24c0-18-11-19-240-19H410l-6,24c-3,13-4,36-2,51c3,26,8,29,63,41c33,7,69,15,80,19l20,8l-20-17c-19-16-18-17,25-11
		c50,7,122,38,140,61c11,12,16,8,32-26C753,768,781,737,803,720z M1038,418l2-198H885H730v-30c0-25,4-30,25-30c14,0,25-4,25-10
		s-38-10-95-10s-95,4-95,10s11,10,25,10c21,0,25,5,25,30v29l-157,3l-158,3l3,190c2,104,6,193,8,197c3,5,161,7,352,6l347-3L1038,418z
		 M1124,351c42-43,47-51,37-70c-15-27-41-27-75,0c-22,17-26,28-26,70c0,27,4,49,8,49S1097,378,1124,351z M305,305c0-38-9-45-24-18
		c-6,11-6,24,0,35C296,350,305,343,305,305z"/>
	<path class="st2" d="M513,694c-7-20,22-45,44-37c8,3,13,15,11,27C564,711,523,719,513,694z"/>
	<path class="st2" d="M736,701c-8-12,2-38,18-44c20-8,38,8,34,29C785,706,746,718,736,701z"/>
	<path class="st2" d="M635,500c-6-10,2-108,11-121c8-14,60-11,73,5c7,8,11,37,9,68l-3,53l-42,2C659,507,638,504,635,500z M670,469
		c0-5-4-9-10-9c-5,0-10,7-10,16c0,8,5,12,10,9C666,482,670,475,670,469z M707,468c-3-8-6-5-6,6c-1,11,2,17,5,13
		C709,484,710,475,707,468z M705,415c0-23-34-33-45-14c-13,20,1,40,24,37C697,436,705,428,705,415z"/>
	<path class="st2" d="M655,190c0-26,4-30,28-30c23,0,27,4,27,30s-4,30-27,30C659,220,655,216,655,190z M686,183c-10-10-19,5-10,18
		c6,11,8,11,12,0C690,194,689,186,686,183z"/>
	<path class="st2" d="M1002,998c-7-7-12-26-12-42c1-40,35-116,53-116c19,0,94,55,106,79c14,25,14,58,1,66c-6,4-23-1-37-10
		c-26-17-27-17-45,9C1047,1012,1021,1017,1002,998z M1055,952c11-38,21-40,52-10c25,23,44,17,27-10c-6-9-27-30-48-46
		c-31-25-39-28-47-16c-17,27-32,88-25,105C1023,1000,1044,988,1055,952z"/>
	<path class="st2" d="M1150,180v-40h40c22,0,40,2,40,5c0,16-31,63-45,69C1155,225,1150,220,1150,180z"/>
</g>
</svg>
