<?xml version="1.0" encoding="utf-8"?>
<!-- Generator: Adobe Illustrator 22.1.0, SVG Export Plug-In . SVG Version: 6.00 Build 0)  -->
<svg version="1.1" id="Capa_1" xmlns="http://www.w3.org/2000/svg" xmlns:xlink="http://www.w3.org/1999/xlink" x="0px" y="0px"
	 viewBox="0 0 294.8 294.8" style="enable-background:new 0 0 294.8 294.8;" xml:space="preserve">
<style type="text/css">
	.st0{fill:#D81414;}
</style>
<g>
	<path d="M147.4,0C66.1,0,0,66.1,0,147.4c0,41,17.3,80.4,47.4,108.3c2.4,2.3,6.2,2.1,8.5-0.3c2.3-2.4,2.1-6.2-0.3-8.5
		C27.9,221.3,12,185.1,12,147.4C12,72.8,72.8,12,147.4,12s135.4,60.8,135.4,135.4s-60.8,135.4-135.4,135.4c-3.3,0-6,2.7-6,6
		s2.7,6,6,6c81.3,0,147.4-66.1,147.4-147.4S228.7,0,147.4,0z"/>
	<path class="st0" d="M84.2,90.2h126.5c3.3,0,6-2.7,6-6s-2.7-6-6-6H84.2c-3.3,0-6,2.7-6,6S80.9,90.2,84.2,90.2z"/>
	<path class="st0" d="M84.2,153.4h126.5c3.3,0,6-2.7,6-6s-2.7-6-6-6H84.2c-3.3,0-6,2.7-6,6S80.9,153.4,84.2,153.4z"/>
	<path class="st0" d="M216.7,210.7c0-3.3-2.7-6-6-6H84.2c-3.3,0-6,2.7-6,6s2.7,6,6,6h126.5C214,216.7,216.7,214,216.7,210.7z"/>
</g>
</svg>
