<?xml version="1.0" encoding="utf-8"?>
<!-- Generator: Adobe Illustrator 22.1.0, SVG Export Plug-In . SVG Version: 6.00 Build 0)  -->
<svg version="1.1" id="Layer_1" xmlns="http://www.w3.org/2000/svg" xmlns:xlink="http://www.w3.org/1999/xlink" x="0px" y="0px"
	 viewBox="0 0 512 512" style="enable-background:new 0 0 512 512;" xml:space="preserve">
<style type="text/css">
	.st0{fill:#FFFAFA;}
</style>
<g>
	<g>
		<path class="st0" d="M469.8,0H110.6c-4.4,0-8,3.6-8,8s3.6,8,8,8h359.1c14.4,0,26.2,11.7,26.2,26.2v427.6
			c0,14.4-11.7,26.2-26.2,26.2H323.9V392.8c0-4.4-3.6-8-8-8s-8,3.6-8,8V496h-52.4V307.3c0-4.4-3.6-8-8-8h-34.7v-52.4h34.7
			c4.4,0,8-3.6,8-8v-51.3c0-52.2,42.4-94.6,94.6-94.6h60.4v52.4h-60.4c-23.3,0-42.2,18.9-42.2,42.2v51.3c0,4.4,3.6,8,8,8h94.6v52.4
			h-94.6c-4.4,0-8,3.6-8,8v51.3c0,4.4,3.6,8,8,8s8-3.6,8-8v-43.3h94.6c4.4,0,8-3.6,8-8v-68.4c0-4.4-3.6-8-8-8h-94.6v-43.3
			c0-14.4,11.7-26.2,26.2-26.2h68.4c4.4,0,8-3.6,8-8V85c0-4.4-3.6-8-8-8h-68.4c-61,0-110.6,49.6-110.6,110.6v43.3h-34.7
			c-4.4,0-8,3.6-8,8v68.4c0,4.4,3.6,8,8,8h34.7V496H42.2C27.8,496,16,484.2,16,469.8V42.2C16,27.8,27.8,16,42.2,16h34.2
			c4.4,0,8-3.6,8-8s-3.6-8-8-8H42.2C18.9,0,0,18.9,0,42.2v427.6C0,493.1,18.9,512,42.2,512h427.6c23.3,0,42.2-18.9,42.2-42.2V42.2
			C512,18.9,493.1,0,469.8,0z"/>
	</g>
</g>
</svg>
