<?xml version="1.0" encoding="utf-8"?>
<!-- Generator: Adobe Illustrator 22.1.0, SVG Export Plug-In . SVG Version: 6.00 Build 0)  -->
<svg version="1.1" id="Шар_1" xmlns="http://www.w3.org/2000/svg" xmlns:xlink="http://www.w3.org/1999/xlink" x="0px" y="0px"
	 viewBox="0 0 40 40" style="enable-background:new 0 0 40 40;" xml:space="preserve">
<style type="text/css">
	.st0{fill:#D81414;}
	.st1{fill:#1A1C20;}
</style>
<g>
	<polygon class="st0" points="26,29.1 23.9,26 21.6,26.5 21.6,29.8 23.8,33.8 24.5,35.4 25.5,36.1 28.4,32.8 30,31.1 30,29.4 
		30,27.5 	"/>
	<path class="st1" d="M21.7,25.7c-1.8,1.7-0.4,7,3,11.2c0.8,1,6.3-5.5,6.3-7.4c0-2.9-1-3.7-2.7-2.4c-1,0.9-1.8,0.8-3.1-0.5
		C23.2,24.8,22.6,24.7,21.7,25.7z M25,29.6l1,2.6l2-2.4c1.1-1.2,1.9-1.8,2-1.1c0,0.7-1.1,2.4-2.4,3.9l-2.3,2.8l-1.7-3.1
		c-1.8-3.7-2-5.3-0.6-5.3C23.6,27,24.5,28.2,25,29.6z"/>
</g>
<g>
	<polygon class="st0" points="22.1,5.1 19.9,9.4 19.4,10.8 16.9,9.9 14,9.9 12.2,10.8 13,14.3 18.2,17.9 20.9,19.1 22.1,19.1 
		23.9,16.6 24.5,12.1 24.5,7.6 	"/>
	<path class="st1" d="M19.9,6.9C19,9.5,18.5,9.8,16.6,9c-1.3-0.4-2.9-0.4-3.9,0.1c-3.9,2.2-0.6,7.3,6.5,10.3c3.6,1.4,3.8,1.4,5-0.7
		C26,15.4,25.8,6.1,24,5C21.6,3.5,21,3.8,19.9,6.9z M23.8,12.2c-0.3,2.6-0.8,5.1-1.2,5.5c-1,1.1-9.6-3.5-9.6-5.1
		c0-2.3,1.4-2.6,4.4-1c3.7,1.8,3.6,1.9,3.6-1.4c0-3.2,0.8-4.4,2.3-3.5C23.8,7,24,9.5,23.8,12.2z"/>
</g>
</svg>
