<?xml version="1.0" encoding="utf-8"?>
<!-- Generator: Adobe Illustrator 22.1.0, SVG Export Plug-In . SVG Version: 6.00 Build 0)  -->
<svg version="1.1" id="Capa_1" xmlns="http://www.w3.org/2000/svg" xmlns:xlink="http://www.w3.org/1999/xlink" x="0px" y="0px"
	 viewBox="0 0 512 512" style="enable-background:new 0 0 512 512;" xml:space="preserve">
<style type="text/css">
	.st0{fill:#FFFAFA;}
</style>
<g>
	<path class="st0" d="M424.3,0H87.7C39.3,0,0,39.3,0,87.7v336.7C0,472.7,39.3,512,87.7,512h336.7c48.3,0,87.7-39.3,87.7-87.7V87.7
		C512,39.3,472.7,0,424.3,0L424.3,0z M497,424.3c0,40.1-32.6,72.7-72.7,72.7H87.7C47.6,497,15,464.4,15,424.3V87.7
		C15,47.6,47.6,15,87.7,15h336.7c40.1,0,72.7,32.6,72.7,72.7V424.3z"/>
	<path class="st0" d="M256,112.2c-79.3,0-143.8,64.5-143.8,143.8S176.7,399.8,256,399.8S399.8,335.3,399.8,256
		S335.3,112.2,256,112.2L256,112.2z M256,384.8c-71,0-128.8-57.8-128.8-128.8S185,127.2,256,127.2S384.8,185,384.8,256
		S327,384.8,256,384.8L256,384.8z"/>
	<path class="st0" d="M408.3,64.1c-21.8,0-39.6,17.7-39.6,39.6c0,21.8,17.7,39.6,39.6,39.6s39.6-17.7,39.6-39.6
		S430.1,64.1,408.3,64.1z M408.3,128.3c-13.5,0-24.6-11-24.6-24.6s11-24.6,24.6-24.6s24.6,11,24.6,24.6S421.9,128.3,408.3,128.3z"/>
	<path class="st0" d="M193.3,193.3c30.7-30.7,78.7-34.7,114-9.5c3.4,2.4,8.1,1.6,10.5-1.8c2.4-3.4,1.6-8.1-1.8-10.5
		c-19.7-14.1-44-20.8-68.2-18.9c-24.6,1.9-47.7,12.6-65.1,30c-17.4,17.4-28.1,40.6-30,65.1c-1.9,24.3,4.8,48.5,18.9,68.2
		c1.5,2.1,3.8,3.1,6.1,3.1c1.5,0,3-0.5,4.3-1.4c3.4-2.4,4.2-7.1,1.8-10.5C158.6,271.9,162.6,224,193.3,193.3L193.3,193.3z"/>
	<path class="st0" d="M330,194.2c-3.4,2.4-4.2,7.1-1.8,10.5c25.2,35.4,21.2,83.3-9.5,114c-30.7,30.7-78.7,34.7-114,9.5
		c-3.4-2.4-8.1-1.6-10.5,1.8c-2.4,3.4-1.6,8.1,1.8,10.5c17.6,12.5,38.7,19.2,60.2,19.2c2.7,0,5.4-0.1,8-0.3
		c24.6-1.9,47.7-12.6,65.1-30c17.4-17.4,28.1-40.6,30-65.1c1.9-24.3-4.8-48.5-18.9-68.2C338,192.6,333.4,191.8,330,194.2L330,194.2z
		"/>
</g>
</svg>
