<?xml version="1.0" encoding="utf-8"?>
<!-- Generator: Adobe Illustrator 22.1.0, SVG Export Plug-In . SVG Version: 6.00 Build 0)  -->
<svg version="1.1" id="Шар_2" xmlns="http://www.w3.org/2000/svg" xmlns:xlink="http://www.w3.org/1999/xlink" x="0px" y="0px"
	 viewBox="0 0 340 340" style="enable-background:new 0 0 340 340;" xml:space="preserve">
<style type="text/css">
	.st0{fill:none;stroke:#FFFAFA;stroke-width:8;stroke-miterlimit:10;}
	.st1{fill:#FFFAFA;}
</style>
<circle class="st0" cx="145" cy="186.2" r="141"/>
<circle class="st0" cx="186.5" cy="179.2" r="107.3"/>
<circle class="st0" cx="166" cy="161.5" r="107.3"/>
<circle class="st0" cx="145.3" cy="187.4" r="100.1"/>
<ellipse class="st0" cx="186" cy="180.2" rx="150" ry="147"/>
<ellipse class="st0" cx="168.7" cy="161.7" rx="147.3" ry="148.8"/>
<g>
	<path class="st1" d="M131.9,164.1c0,1.5-0.3,2.7-0.9,3.6c-0.5,0.9-1.3,1.8-2.5,2.8c-0.6,0.4-1.2,0.8-1.9,1.1
		c-0.4,0.2-1.2,0.6-2.2,1.1c-1,0.4-1.8,0.7-2.4,1c-0.4,0.2-1.1,0.4-1.9,0.7c-0.3,0.1-0.8,0.2-1.4,0.4c-0.4,0.1-0.9,0.1-1.5,0.1
		l-0.3,1.9l-0.2,1.4c0.2,1.3,0.5,2.1,1.1,2.4c-1.2,2-2.2,3.1-3.1,3.1c-0.9,0-1.3-0.8-1.4-2.3l0.3-4.5l-0.1-0.7l-0.8-0.3l-0.6-0.2
		l-0.1-0.3l0.1-0.4c0-0.2,0.1-0.4,0.3-0.5l0.8-0.4c0.3-0.1,0.5-0.2,0.6-0.4l0.2-0.7l0.3-1.3l0.1-1.5l2.4-14.3l-0.6-0.9
		c-0.1-0.3-0.4-0.6-0.8-0.9l-0.5-0.6l-0.5-0.8c0-0.4,0.2-1,0.7-1.5c0.4-0.5,0.9-0.9,1.6-1.3c0.6-0.5,1.1-0.7,1.4-0.8
		c0.2,0,0.4,0.1,0.5,0.2l0.3,0.1c0.7,0,1.9,0.4,3.6,1.3c2.8,1.5,5.1,3.4,6.8,5.6C131,158.8,131.9,161.3,131.9,164.1z M127.7,164.5
		c0.2-2.7-1.6-5.5-5.1-8.3l-1.8-1.4l-1-0.6l-1-0.1l-0.2,0.1l0.1,0.2l0.3,0.2l0.4,0.3l0.9,1.1c0.4,0.5,0.7,0.9,0.9,1.3
		c0.1,0.2,0.1,0.6,0.2,1.2l-0.2,0.5l-0.3,1.1l-0.4,1.4l-0.3,1.1l-0.9,2.3l0.1,0.2l0.1,0.3c0,0.2-0.1,0.5-0.4,1
		c-0.3,0.6-0.5,1.3-0.6,2.1l-0.4,2.2l-0.1,1c0,0.3,0.2,0.5,0.5,0.7c1.6-0.4,3-0.9,4.2-1.6l2.4-1.4c0.4-0.2,1-0.6,1.6-1.1
		c0.6-0.4,1-1,1.1-2L127.7,164.5z"/>
	<path class="st1" d="M155.9,161.1c0,3-0.6,5.6-1.8,8c-1.2,2.3-2.5,4.2-3.9,5.6c-0.5,0.5-1.8,1.6-4.1,3.4l-1.8,1.5l-3.9,1.2
		l-1.7,0.2c-1.3,0-2.4-0.3-3.2-1c-0.8-0.7-1.4-1.6-1.8-2.7c-0.3-0.9-0.5-2-0.5-3.4l-0.1-0.1l0.2-1.7l0.2-1.7l0.2-0.7l0.2-0.4
		l0.1-0.4c0-0.6-0.1-0.9-0.3-1l-0.2,0.2c0,0.4-0.3,0.7-0.8,0.9c-0.3-0.1-0.5-0.2-0.6-0.4l0.2-1.1c0.1-0.5,0.1-0.9,0.2-1.1l0.7-1.3
		l1.3-2.5l1.6-3.6l1.5-3.6l0.7-1.4l0.9-1.3l0.8-0.6l0.5-0.3c0.5,0,0.8,0.3,0.8,0.9c0,0.3-0.1,0.6-0.3,1c-0.1,0.2-0.2,0.5-0.4,1
		l-0.2,0.6l0.2,0.4l0.4-0.3l0.3-0.3c0.3-0.6,1.1-1.1,2.3-1.6c0.2-0.3,0.5-0.6,0.9-0.9c0.1,0,0.4-0.2,1-0.4l0.9-0.1l0.2-0.1
		c0.2,0,0.3-0.1,0.4-0.2l0.6-0.3c1.5,0.3,2.9,0.9,4.1,1.9c1.2,1,2.3,2.2,3.1,3.8C155.5,158.4,155.9,159.8,155.9,161.1z M151.9,164.2
		c0-0.9-0.2-2-0.7-3.3c-0.2-0.6-0.6-1.3-0.9-1.9c-0.5-0.8-1.1-1.4-1.9-1.9c-0.8-0.5-1.8-0.8-2.9-0.8c-2.3,0.3-4.5,1.5-6.7,3.9
		l-0.6,3.1l-0.6,3.3l-0.2,2.7l-0.1,1.2l-0.1,1.3c0.1,0.5,0.2,1.3,0.4,2.3c0.2,0.7,0.5,1.5,0.8,2.3c0.3,0.7,1,1,2.1,1.1l1.7-0.1
		c0.3-0.1,0.8-0.3,1.4-0.5l1.3-0.9l1.3-1.1c0.7-0.6,1.6-1.4,2.5-2.4c0.1,0,0.3-0.4,0.7-1l0.5-0.7l0.6-1.5c0.1-0.6,0.3-0.9,0.5-1.1
		C151.6,166.9,151.9,165.6,151.9,164.2z"/>
	<path class="st1" d="M176.3,164.1c0,1.5-0.3,2.7-0.9,3.6c-0.5,0.9-1.3,1.8-2.5,2.8c-0.6,0.4-1.2,0.8-1.9,1.1
		c-0.4,0.2-1.2,0.6-2.2,1.1c-1,0.4-1.8,0.7-2.4,1c-0.4,0.2-1.1,0.4-1.9,0.7c-0.3,0.1-0.8,0.2-1.4,0.4c-0.4,0.1-0.9,0.1-1.5,0.1
		l-0.3,1.9l-0.2,1.4c0.2,1.3,0.5,2.1,1.1,2.4c-1.2,2-2.2,3.1-3.1,3.1c-0.9,0-1.3-0.8-1.4-2.3l0.3-4.5l-0.1-0.7l-0.8-0.3l-0.6-0.2
		l-0.1-0.3l0.1-0.4c0-0.2,0.1-0.4,0.3-0.5l0.8-0.4c0.3-0.1,0.5-0.2,0.6-0.4l0.2-0.7l0.3-1.3l0.1-1.5l2.4-14.3l-0.6-0.9
		c-0.1-0.3-0.4-0.6-0.8-0.9l-0.5-0.6l-0.5-0.8c0-0.4,0.2-1,0.7-1.5c0.4-0.5,0.9-0.9,1.6-1.3c0.6-0.5,1.1-0.7,1.4-0.8
		c0.2,0,0.4,0.1,0.5,0.2l0.3,0.1c0.7,0,1.9,0.4,3.6,1.3c2.8,1.5,5.1,3.4,6.8,5.6S176.3,161.3,176.3,164.1z M172,164.5
		c0.2-2.7-1.6-5.5-5.1-8.3l-1.8-1.4l-1-0.6l-1-0.1l-0.2,0.1l0.1,0.2l0.3,0.2l0.4,0.3l0.9,1.1c0.4,0.5,0.7,0.9,0.9,1.3
		c0.1,0.2,0.1,0.6,0.2,1.2l-0.2,0.5l-0.3,1.1l-0.4,1.4l-0.3,1.1l-0.9,2.3l0.1,0.2l0.1,0.3c0,0.2-0.1,0.5-0.4,1
		c-0.3,0.6-0.5,1.3-0.6,2.1l-0.4,2.2l-0.1,1c0,0.3,0.2,0.5,0.5,0.7c1.6-0.4,3-0.9,4.2-1.6l2.4-1.4c0.4-0.2,1-0.6,1.6-1.1
		c0.6-0.4,1-1,1.1-2L172,164.5z"/>
	<path class="st1" d="M196.3,164.1c0,1.5-0.3,2.7-0.9,3.6c-0.5,0.9-1.3,1.8-2.5,2.8c-0.6,0.4-1.2,0.8-1.9,1.1
		c-0.4,0.2-1.2,0.6-2.2,1.1c-1,0.4-1.8,0.7-2.4,1c-0.4,0.2-1.1,0.4-1.9,0.7c-0.3,0.1-0.8,0.2-1.4,0.4c-0.4,0.1-0.9,0.1-1.5,0.1
		l-0.3,1.9l-0.2,1.4c0.2,1.3,0.5,2.1,1.1,2.4c-1.2,2-2.2,3.1-3.1,3.1c-0.9,0-1.3-0.8-1.4-2.3l0.3-4.5l-0.1-0.7l-0.8-0.3l-0.6-0.2
		l-0.1-0.3l0.1-0.4c0-0.2,0.1-0.4,0.3-0.5l0.8-0.4c0.3-0.1,0.5-0.2,0.6-0.4l0.2-0.7l0.3-1.3l0.1-1.5l2.4-14.3l-0.6-0.9
		c-0.1-0.3-0.4-0.6-0.8-0.9l-0.5-0.6l-0.5-0.8c0-0.4,0.2-1,0.7-1.5c0.4-0.5,0.9-0.9,1.6-1.3c0.6-0.5,1.1-0.7,1.4-0.8
		c0.2,0,0.4,0.1,0.5,0.2l0.3,0.1c0.7,0,1.9,0.4,3.6,1.3c2.8,1.5,5.1,3.4,6.8,5.6S196.3,161.3,196.3,164.1z M192.1,164.5
		c0.2-2.7-1.6-5.5-5.1-8.3l-1.8-1.4l-1-0.6l-1-0.1l-0.2,0.1l0.1,0.2l0.3,0.2l0.4,0.3l0.9,1.1c0.4,0.5,0.7,0.9,0.9,1.3
		c0.1,0.2,0.1,0.6,0.2,1.2l-0.2,0.5l-0.3,1.1l-0.4,1.4l-0.3,1.1l-0.9,2.3l0.1,0.2l0.1,0.3c0,0.2-0.1,0.5-0.4,1
		c-0.3,0.6-0.5,1.3-0.6,2.1l-0.4,2.2l-0.1,1c0,0.3,0.2,0.5,0.5,0.7c1.6-0.4,3-0.9,4.2-1.6l2.4-1.4c0.4-0.2,1-0.6,1.6-1.1
		c0.6-0.4,1-1,1.1-2L192.1,164.5z"/>
	<path class="st1" d="M217.5,151.2c0,3.5-0.8,6.4-2.4,8.6c0,0.2-0.1,0.5-0.3,1.1c-0.1,0.5-0.3,0.8-0.6,1c0,0.2-0.5,0.9-1.6,2.2
		l-0.9,1.6c-0.1,0.1-0.3,0.5-0.6,1.1c-0.3,0.4-0.5,0.7-0.7,0.9l-0.8,1.7l-0.8,1.7c-0.4,0.8-0.9,1.9-1.7,3.2c0,0.2,0,0.3-0.1,0.4
		c0,0.2-0.1,0.6-0.3,1.1l-0.5,2l-0.2,1.3l0.2,0.2l0.2,0.4l0.1,0.3c-0.1,0.4-0.3,0.6-0.6,0.8l-0.5,0.3c0,0-0.2,0-0.6,0.1
		c-0.1,0.1-0.3,0.2-0.6,0.4l-1,0.3c-0.4,0-0.8-0.1-1.2-0.3c-0.5-0.1-0.7-0.3-0.8-0.7c0-0.6,0.1-1.3,0.4-2.1c0.3-0.9,0.6-1.5,0.9-1.7
		c0.1-1,0.3-1.8,0.6-2.3l0.6-1l0.4-1l0.2-1c-0.4-0.2-0.7-0.5-1-0.9l-0.7-1.1l-0.6-1.3l-0.9-1.8l-1.1-4l-0.6-2.9c0-0.3,0-0.6-0.1-1
		c0-0.5,0-0.8-0.1-0.9v-0.8c-0.2,0-0.3-0.4-0.5-1.2l-0.1-0.6l-0.1-0.6l0.2-1.1c0-0.4,0.1-0.7,0.4-1c0.1-0.2,0.4-0.3,0.9-0.4l0.5-0.1
		c0.5-0.3,1.1-0.4,1.7-0.5c0.4,0,0.8,0.2,1.2,0.6c0.3,0.5,0.5,0.9,0.5,1.2l-0.1,1.7l-0.1,2.5l0.2,2.1c0,0.2,0.1,0.5,0.2,1
		c0.1,0.2,0.2,0.6,0.4,1.2l0.2,1.5l0.6,2.6c0.2,0.7,0.5,1.4,1,1.9c0.2-0.1,0.5-0.4,0.8-0.9l1.5-2.9c0.4-0.7,0.8-1.5,1.3-2.4
		c0.3-1,0.7-2,1.2-2.9l1.3-2.3l1.1-1.7l2.1-3.4c0.3-0.5,0.7-0.9,1.2-1C216.8,150.6,217.1,150.8,217.5,151.2z"/>
</g>
<g>
	<path class="st1" d="M136.4,224.7c0,0.2,0,0.3-0.2,0.5l-0.4,0.3l-0.6,0.3c-0.2,0.2-0.7,0.4-1.5,0.8c-0.3,0.2-1.1,0.4-2.2,0.8
		l-1.7,0.5l-1.8,0.2l-1.9,0.1c-0.8,0.1-1.3-0.1-1.7-0.6l-0.6-0.1l-0.4-0.5l-0.2-0.8l-0.1-0.5l0.1-1.2c0.2-2,0.7-5.4,1.6-10.2
		l0.2-2.3c0-0.2-0.2-0.6-0.7-1.1c0.1-0.4,0.2-1.1,0.4-2.1l0.3-1.9l0.3-1.2l0.5-2.3c0.3-1.3,0.6-2.2,1-2.8l0.6-1.5
		c0.2-0.4,0.4-0.9,0.8-1.3c0.3-0.3,0.7-0.5,1.2-0.6l1.1-0.4c0.2,0,0.4,0.2,0.6,0.5c0.2,0.2,0.3,0.5,0.4,1.1l-0.1,1.2l-0.2,1
		l-0.4,2.3l-0.5,2.3v0.8c0,0.4,0,0.8-0.1,1.1c0,0.4-0.1,0.8-0.2,1l-0.2,0.8c0,0.4-0.1,0.7-0.4,1c0,0.1-0.2,1-0.5,2.6l-0.5,2
		l-1.1,5.6l-0.2,2.4c0.1,0.8,0.4,1.4,0.8,1.6c0.2-0.1,0.6-0.2,1.1-0.2l1.4-0.1c1.6-0.1,3.3-0.6,4.9-1.5c0.4-0.3,0.8-0.5,1.3-0.5
		l0.2,0.2l0,0.4l-0.2,1.1l0.2,0.5L136.4,224.7z"/>
	<path class="st1" d="M159.3,208c0,3-0.5,5.6-1.7,8c-1.2,2.3-2.4,4.2-3.8,5.6c-0.4,0.5-1.8,1.6-4,3.4l-1.8,1.5l-3.8,1.2l-1.7,0.2
		c-1.3,0-2.3-0.3-3.1-1c-0.8-0.7-1.4-1.6-1.7-2.7c-0.3-0.9-0.5-2-0.5-3.4l-0.1-0.1l0.2-1.7l0.1-1.7l0.1-0.7l0.2-0.4l0-0.4
		c0-0.6-0.1-0.9-0.3-1l-0.2,0.2c0,0.4-0.3,0.7-0.8,0.9c-0.3-0.1-0.5-0.2-0.5-0.4l0.2-1.1c0-0.5,0.1-0.9,0.1-1.1l0.7-1.3l1.3-2.5
		l1.6-3.6l1.5-3.6l0.7-1.4l0.9-1.3l0.7-0.6l0.5-0.3c0.5,0,0.7,0.3,0.7,0.9c0,0.3-0.1,0.6-0.2,1c-0.1,0.2-0.2,0.5-0.4,1l-0.2,0.6
		l0.2,0.4l0.4-0.3l0.2-0.3c0.3-0.6,1.1-1.1,2.2-1.6c0.2-0.3,0.5-0.6,0.9-0.9c0.1,0,0.4-0.2,1-0.4l0.9-0.1l0.2-0.1
		c0.2,0,0.3-0.1,0.4-0.2l0.5-0.3c1.5,0.3,2.8,0.9,4,1.9c1.2,1,2.2,2.2,3,3.8C158.9,205.3,159.3,206.6,159.3,208z M155.4,211.1
		c0-0.9-0.2-2-0.6-3.3c-0.2-0.6-0.5-1.3-0.9-1.9c-0.5-0.8-1.1-1.4-1.9-1.9c-0.8-0.5-1.7-0.8-2.8-0.8c-2.2,0.3-4.4,1.5-6.5,3.9
		l-0.5,3.1l-0.6,3.3l-0.2,2.7l0,1.2l-0.1,1.3c0,0.5,0.2,1.3,0.3,2.3c0.2,0.7,0.5,1.5,0.8,2.3c0.3,0.7,1,1,2.1,1.1l1.7-0.1
		c0.3-0.1,0.8-0.3,1.3-0.5l1.3-0.9l1.3-1.1c0.7-0.6,1.5-1.4,2.4-2.4c0,0,0.3-0.4,0.7-1l0.5-0.7l0.5-1.5c0.1-0.6,0.3-0.9,0.5-1.1
		C155.1,213.7,155.4,212.5,155.4,211.1z"/>
	<path class="st1" d="M182.9,208c0,3-0.5,5.6-1.7,8c-1.2,2.3-2.4,4.2-3.8,5.6c-0.4,0.5-1.8,1.6-4,3.4l-1.8,1.5l-3.8,1.2l-1.7,0.2
		c-1.3,0-2.3-0.3-3.1-1c-0.8-0.7-1.4-1.6-1.7-2.7c-0.3-0.9-0.5-2-0.5-3.4l-0.1-0.1l0.2-1.7l0.1-1.7l0.1-0.7l0.2-0.4l0-0.4
		c0-0.6-0.1-0.9-0.3-1l-0.2,0.2c0,0.4-0.3,0.7-0.8,0.9c-0.3-0.1-0.5-0.2-0.5-0.4l0.2-1.1c0-0.5,0.1-0.9,0.1-1.1l0.7-1.3l1.3-2.5
		l1.6-3.6l1.5-3.6l0.7-1.4l0.9-1.3l0.7-0.6l0.5-0.3c0.5,0,0.7,0.3,0.7,0.9c0,0.3-0.1,0.6-0.2,1c-0.1,0.2-0.2,0.5-0.4,1l-0.2,0.6
		l0.2,0.4l0.4-0.3l0.2-0.3c0.3-0.6,1.1-1.1,2.2-1.6c0.2-0.3,0.5-0.6,0.9-0.9c0.1,0,0.4-0.2,1-0.4l0.9-0.1l0.2-0.1
		c0.2,0,0.3-0.1,0.4-0.2l0.5-0.3c1.5,0.3,2.8,0.9,4,1.9c1.2,1,2.2,2.2,3,3.8C182.5,205.3,182.9,206.6,182.9,208z M179,211.1
		c0-0.9-0.2-2-0.6-3.3c-0.2-0.6-0.5-1.3-0.9-1.9c-0.5-0.8-1.1-1.4-1.9-1.9s-1.7-0.8-2.8-0.8c-2.2,0.3-4.4,1.5-6.5,3.9l-0.5,3.1
		l-0.6,3.3l-0.2,2.7l0,1.2l-0.1,1.3c0,0.5,0.2,1.3,0.3,2.3c0.2,0.7,0.5,1.5,0.8,2.3c0.3,0.7,1,1,2.1,1.1l1.7-0.1
		c0.3-0.1,0.8-0.3,1.3-0.5l1.3-0.9l1.3-1.1c0.7-0.6,1.5-1.4,2.4-2.4c0,0,0.3-0.4,0.7-1l0.5-0.7l0.5-1.5c0.1-0.6,0.3-0.9,0.5-1.1
		C178.7,213.7,179,212.5,179,211.1z"/>
	<path class="st1" d="M202.7,210.9c0,1.5-0.3,2.7-0.9,3.6c-0.5,0.9-1.3,1.8-2.4,2.8c-0.6,0.4-1.2,0.8-1.8,1.1
		c-0.4,0.2-1.2,0.6-2.2,1.1c-1,0.4-1.8,0.7-2.3,1c-0.4,0.2-1,0.4-1.8,0.7c-0.3,0.1-0.7,0.2-1.4,0.4c-0.4,0.1-0.9,0.1-1.4,0.1
		l-0.3,1.9l-0.2,1.4c0.2,1.3,0.5,2.1,1.1,2.4c-1.1,2-2.1,3.1-3,3.1c-0.8,0-1.3-0.8-1.3-2.3l0.3-4.5l-0.1-0.7l-0.7-0.3l-0.6-0.2
		l-0.1-0.3l0-0.4c0-0.2,0.1-0.4,0.2-0.5l0.8-0.4c0.2-0.1,0.5-0.2,0.6-0.4l0.1-0.7l0.2-1.3l0-1.5l2.4-14.3l-0.5-0.9
		c-0.1-0.3-0.4-0.6-0.8-0.9l-0.5-0.6l-0.5-0.8c0-0.4,0.2-1,0.7-1.5c0.4-0.5,0.9-0.9,1.6-1.3c0.6-0.5,1-0.7,1.3-0.8
		c0.2,0,0.4,0.1,0.5,0.2l0.2,0.1c0.7,0,1.9,0.4,3.5,1.3c2.7,1.5,4.9,3.4,6.6,5.6C201.8,205.7,202.7,208.2,202.7,210.9z M198.6,211.3
		c0.1-2.7-1.5-5.5-5-8.3l-1.7-1.4l-1-0.6l-1-0.1l-0.1,0.1l0,0.2l0.2,0.2l0.4,0.3l0.9,1.1c0.4,0.5,0.7,0.9,0.8,1.3
		c0.1,0.2,0.1,0.6,0.2,1.2l-0.2,0.5l-0.3,1.1l-0.3,1.4l-0.3,1.1l-0.9,2.3l0,0.2l0,0.3c0,0.2-0.1,0.5-0.4,1c-0.2,0.6-0.4,1.3-0.6,2.1
		l-0.4,2.2l-0.1,1c0,0.3,0.2,0.5,0.5,0.7c1.6-0.4,2.9-0.9,4.1-1.6l2.4-1.4c0.4-0.2,0.9-0.6,1.6-1.1c0.6-0.4,1-1,1.1-2L198.6,211.3z"
		/>
</g>
</svg>
