<svg id="Шар_2" data-name="Шар 2" xmlns="http://www.w3.org/2000/svg" viewBox="0 0 340 322.31"><defs><style>.cls-1,.cls-2{fill:none;stroke-miterlimit:10;stroke-width:8px;}.cls-1{stroke:#000;}.cls-2{stroke:#da0000;}</style></defs><title>logo</title><circle class="cls-1" cx="145" cy="177.31" r="141"/><circle class="cls-2" cx="186.52" cy="170.31" r="107.33"/><circle class="cls-1" cx="166.05" cy="152.66" r="107.33"/><circle class="cls-1" cx="145.3" cy="178.5" r="100.14"/><ellipse class="cls-2" cx="186.02" cy="171.31" rx="149.98" ry="147"/><ellipse class="cls-1" cx="168.67" cy="152.82" rx="147.33" ry="148.82"/><path d="M131.9,164.08a6.52,6.52,0,0,1-.94,3.61,10.31,10.31,0,0,1-2.5,2.83c-.57.38-1.2.76-1.88,1.15l-2.24,1.1a21.52,21.52,0,0,0-2.39,1l-1.88.66a11.61,11.61,0,0,0-1.4.4,6.79,6.79,0,0,1-1.45.14l-.31,1.87-.18,1.43c.17,1.31.54,2.12,1.1,2.42-1.16,2-2.17,3-3.06,3.07s-1.32-.76-1.37-2.32l.28-4.46-.13-.72-.76-.28-.59-.24-.1-.3.05-.38a.54.54,0,0,1,.26-.47l.79-.35a2.68,2.68,0,0,0,.63-.37l.15-.68.26-1.29.05-1.46,2.44-14.29-.56-.92a1.93,1.93,0,0,0-.79-.86l-.5-.61-.49-.78a2.62,2.62,0,0,1,.74-1.54,5.66,5.66,0,0,1,1.6-1.29,3.14,3.14,0,0,1,1.38-.78.7.7,0,0,1,.51.17l.25.14a9,9,0,0,1,3.56,1.33,21.63,21.63,0,0,1,6.85,5.61A11.82,11.82,0,0,1,131.9,164.08Zm-4.23.37q.24-4.09-5.14-8.3l-1.78-1.38-1-.58-1-.15-.16.15.06.18.25.17.38.33.94,1.1a5.39,5.39,0,0,1,.87,1.33,6.62,6.62,0,0,1,.23,1.22l-.23.52-.31,1.1-.35,1.4-.33,1.15-.92,2.3,0,.23,0,.31a2.12,2.12,0,0,1-.43,1,9.32,9.32,0,0,0-.61,2.06l-.43,2.21-.11,1q0,.41.54.66a15.05,15.05,0,0,0,4.17-1.57l2.44-1.41a7.4,7.4,0,0,0,1.61-1.15,2.61,2.61,0,0,0,1.14-2Z" transform="translate(0 -8.86)"/><path d="M155.92,161.15a16.85,16.85,0,0,1-1.79,8,21.31,21.31,0,0,1-3.94,5.58c-.46.45-1.81,1.57-4.07,3.35l-1.83,1.45-3.89,1.2-1.73.19a4.65,4.65,0,0,1-3.17-1.05,5.92,5.92,0,0,1-1.77-2.7,12,12,0,0,1-.54-3.4l-.1-.14.21-1.74.15-1.68.15-.66.18-.4.05-.37c0-.57-.09-.89-.28-1l-.2.23q0,.66-.84.87c-.32-.08-.51-.22-.56-.42l.2-1.08a7.11,7.11,0,0,1,.15-1.06l.74-1.29,1.35-2.53L136,159l1.5-3.61.74-1.43.89-1.33.76-.59.49-.28c.5,0,.76.3.76.91a2.77,2.77,0,0,1-.26,1c-.08.22-.22.54-.4,1l-.21.61.21.35.4-.26.26-.32a4.59,4.59,0,0,1,2.31-1.64,2.61,2.61,0,0,1,.92-.92c.1,0,.43-.17,1-.37l.89-.14.21-.1a1,1,0,0,0,.43-.19l.56-.25a8.93,8.93,0,0,1,4.13,1.87,12.81,12.81,0,0,1,3.12,3.75A8.57,8.57,0,0,1,155.92,161.15Zm-4,3.07a9.7,9.7,0,0,0-.67-3.31,10.62,10.62,0,0,0-.94-1.92,5.84,5.84,0,0,0-1.92-1.91,5.67,5.67,0,0,0-2.89-.83c-2.3.25-4.52,1.54-6.66,3.89l-.56,3.07-.64,3.28-.2,2.72,0,1.19-.1,1.27c0,.5.17,1.25.35,2.25a18.9,18.9,0,0,0,.84,2.34c.29.66,1,1,2.14,1.06l1.7-.14a8.56,8.56,0,0,0,1.38-.52l1.35-.87,1.34-1a23.14,23.14,0,0,0,2.52-2.37c.05,0,.29-.38.72-1l.48-.71.56-1.45a2.12,2.12,0,0,1,.53-1.15A12,12,0,0,0,151.9,164.22Z" transform="translate(0 -8.86)"/><path d="M176.27,164.08a6.44,6.44,0,0,1-.94,3.61,10.42,10.42,0,0,1-2.49,2.83c-.58.38-1.21.76-1.89,1.15-.44.22-1.18.59-2.24,1.1a21.52,21.52,0,0,0-2.39,1l-1.88.66a12.15,12.15,0,0,0-1.4.4,6.79,6.79,0,0,1-1.45.14l-.31,1.87-.17,1.43c.17,1.31.53,2.12,1.09,2.42q-1.72,3-3,3.07c-.87,0-1.33-.76-1.38-2.32l.28-4.46-.12-.72-.77-.28-.58-.24-.1-.3.05-.38a.53.53,0,0,1,.25-.47l.79-.35a2.76,2.76,0,0,0,.64-.37l.15-.68.25-1.29,0-1.46,2.45-14.29-.56-.92a2,2,0,0,0-.79-.86l-.51-.61-.48-.78a2.6,2.6,0,0,1,.73-1.54,5.71,5.71,0,0,1,1.61-1.29,3.12,3.12,0,0,1,1.37-.78.66.66,0,0,1,.51.17l.25.14a9,9,0,0,1,3.57,1.33,21.7,21.7,0,0,1,6.84,5.61A11.76,11.76,0,0,1,176.27,164.08Zm-4.22.37q.22-4.09-5.14-8.3l-1.78-1.38-1-.58-1-.15-.15.15.05.18.25.17.39.33.94,1.1a5.06,5.06,0,0,1,.86,1.33,5.82,5.82,0,0,1,.23,1.22l-.23.52-.3,1.1-.36,1.4-.33,1.15-.92,2.3,0,.23.06.31a2.17,2.17,0,0,1-.44,1,10.53,10.53,0,0,0-.61,2.06l-.43,2.21-.1,1c0,.27.18.49.53.66a15.05,15.05,0,0,0,4.17-1.57l2.45-1.41a7.39,7.39,0,0,0,1.6-1.15,2.65,2.65,0,0,0,1.15-2Z" transform="translate(0 -8.86)"/><path d="M196.32,164.08a6.44,6.44,0,0,1-.94,3.61,10.42,10.42,0,0,1-2.49,2.83c-.58.38-1.21.76-1.89,1.15-.44.22-1.18.59-2.24,1.1a21.52,21.52,0,0,0-2.39,1l-1.88.66a12.15,12.15,0,0,0-1.4.4,6.79,6.79,0,0,1-1.45.14l-.31,1.87-.17,1.43c.17,1.31.53,2.12,1.09,2.42q-1.73,3-3.05,3.07c-.87,0-1.33-.76-1.38-2.32l.28-4.46-.12-.72-.77-.28-.58-.24-.1-.3.05-.38a.53.53,0,0,1,.25-.47l.79-.35a2.76,2.76,0,0,0,.64-.37l.15-.68.25-1.29.05-1.46,2.45-14.29-.56-.92a2,2,0,0,0-.79-.86l-.51-.61-.48-.78a2.6,2.6,0,0,1,.73-1.54,5.71,5.71,0,0,1,1.61-1.29,3.12,3.12,0,0,1,1.37-.78.66.66,0,0,1,.51.17l.25.14a9,9,0,0,1,3.57,1.33,21.7,21.7,0,0,1,6.84,5.61A11.76,11.76,0,0,1,196.32,164.08Zm-4.22.37q.22-4.09-5.14-8.3l-1.78-1.38-1-.58-1-.15-.15.15,0,.18.25.17.39.33.94,1.1a5.33,5.33,0,0,1,.86,1.33,5.82,5.82,0,0,1,.23,1.22l-.23.52-.3,1.1-.36,1.4-.33,1.15-.92,2.3.05.23.06.31a2.17,2.17,0,0,1-.44,1,10.53,10.53,0,0,0-.61,2.06l-.43,2.21-.1,1c0,.27.18.49.53.66a15.05,15.05,0,0,0,4.17-1.57l2.45-1.41a7.39,7.39,0,0,0,1.6-1.15,2.65,2.65,0,0,0,1.15-2Z" transform="translate(0 -8.86)"/><path d="M217.46,151.21a14.59,14.59,0,0,1-2.39,8.65,4.28,4.28,0,0,1-.3,1,1.66,1.66,0,0,1-.59,1,8.28,8.28,0,0,1-1.55,2.16l-.94,1.59-.64,1.1q-.41.57-.66.87l-.84,1.66-.79,1.69a32.49,32.49,0,0,1-1.7,3.16,2.14,2.14,0,0,1-.05.45,3.55,3.55,0,0,1-.28,1.05l-.46,2-.15,1.29.15.24.2.35.11.33a1.45,1.45,0,0,1-.57.82l-.53.32a2.86,2.86,0,0,1-.56.1,2.66,2.66,0,0,1-.63.37l-1,.26a3.25,3.25,0,0,1-1.24-.26,1,1,0,0,1-.84-.7,6.89,6.89,0,0,1,.38-2.11,4.28,4.28,0,0,1,.86-1.73,8.77,8.77,0,0,1,.59-2.35l.63-1,.36-1,.2-1a4.81,4.81,0,0,1-1-.92l-.66-1-.64-1.32-.94-1.75-1.14-4-.59-2.93a4.75,4.75,0,0,0-.1-1,2.2,2.2,0,0,0-.1-.92v-.82c-.17,0-.33-.4-.46-1.19l-.1-.64,0-.56.15-1.08a1.28,1.28,0,0,1,.41-1,1.14,1.14,0,0,1,.89-.37l.48-.1a4.65,4.65,0,0,1,1.65-.47,1.91,1.91,0,0,1,1.2.61,2.32,2.32,0,0,1,.48,1.25l-.05,1.73-.12,2.46.17,2.11a9,9,0,0,0,.21,1c0,.2.17.62.35,1.24l.21,1.48L205,166a4.12,4.12,0,0,0,1,1.92,1.87,1.87,0,0,0,.77-.91l1.47-2.89q.54-1.08,1.35-2.43a11,11,0,0,1,1.2-2.89l1.35-2.29,1.09-1.69,2.14-3.42a2,2,0,0,1,1.19-1A2.44,2.44,0,0,1,217.46,151.21Z" transform="translate(0 -8.86)"/><path d="M136.39,224.72a.76.76,0,0,1-.2.52l-.45.3-.61.33a9.55,9.55,0,0,1-1.51.82,11.19,11.19,0,0,1-2.22.78l-1.68.46-1.83.19-1.85.14a1.94,1.94,0,0,1-1.73-.56l-.62-.09-.44-.5-.2-.75-.1-.49.1-1.24c.16-2,.7-5.44,1.6-10.17l.2-2.32c0-.24-.21-.62-.69-1.15.12-.44.25-1.13.4-2.06l.29-1.88.32-1.19.5-2.25a10.14,10.14,0,0,1,1-2.84l.62-1.45A5.72,5.72,0,0,1,128,198a2.21,2.21,0,0,1,1.23-.56l1.06-.35c.17,0,.37.16.6.49a1.92,1.92,0,0,1,.42,1.05l-.13,1.2-.19,1-.45,2.3-.52,2.32v.79a4.48,4.48,0,0,1-.1,1.06,1.8,1.8,0,0,1-.24,1l-.2.77a1.49,1.49,0,0,1-.42,1q0,.21-.54,2.55l-.47,2L127,220.25l-.25,2.41a2.07,2.07,0,0,0,.76,1.62,3.09,3.09,0,0,1,1.07-.19L130,224a11.8,11.8,0,0,0,4.92-1.53,2.37,2.37,0,0,1,1.26-.54l.2.24,0,.35-.25,1.06.2.46Z" transform="translate(0 -8.86)"/><path d="M159.3,208a17.2,17.2,0,0,1-1.73,8,21.37,21.37,0,0,1-3.82,5.58q-.67.67-4,3.35L148,226.41l-3.78,1.2-1.68.18a4.45,4.45,0,0,1-3.08-1,6,6,0,0,1-1.71-2.71,12,12,0,0,1-.52-3.39l-.1-.15.2-1.73.15-1.69.14-.65.18-.4.05-.38q0-.84-.27-1l-.2.24c0,.43-.27.72-.82.86q-.47-.1-.54-.42l.2-1.08a6.91,6.91,0,0,1,.15-1l.71-1.29,1.31-2.53,1.58-3.56,1.46-3.61.71-1.43.87-1.34.74-.58.47-.29c.49,0,.74.31.74.92a2.77,2.77,0,0,1-.25,1c-.08.21-.21.54-.39,1l-.2.61.2.35.39-.26.25-.33a4.52,4.52,0,0,1,2.25-1.64,2.41,2.41,0,0,1,.89-.91c.09,0,.42-.17,1-.38l.86-.14.2-.09a.91.91,0,0,0,.42-.19l.54-.26a8.62,8.62,0,0,1,4,1.88,12.43,12.43,0,0,1,3,3.75A8.58,8.58,0,0,1,159.3,208Zm-3.9,3.07a9.81,9.81,0,0,0-.64-3.3,11.19,11.19,0,0,0-.92-1.92A5.75,5.75,0,0,0,152,204a5.5,5.5,0,0,0-2.8-.84q-3.36.38-6.47,3.89l-.55,3.08-.61,3.28-.2,2.72,0,1.19-.1,1.27c.05.5.17,1.25.35,2.25a19.44,19.44,0,0,0,.81,2.34c.28.66,1,1,2.08,1.05l1.65-.14a7.82,7.82,0,0,0,1.33-.51l1.31-.87,1.31-1a26.91,26.91,0,0,0,2.45-2.37c0-.05.28-.38.69-1l.47-.7.54-1.45a2.09,2.09,0,0,1,.52-1.15A12,12,0,0,0,155.4,211.08Z" transform="translate(0 -8.86)"/><path d="M182.91,208a17.33,17.33,0,0,1-1.73,8,21.38,21.38,0,0,1-3.83,5.58q-.66.67-3.95,3.35l-1.77,1.45-3.78,1.2-1.68.18a4.45,4.45,0,0,1-3.08-1,6,6,0,0,1-1.71-2.71,12,12,0,0,1-.52-3.39l-.1-.15.2-1.73.15-1.69.14-.65.18-.4,0-.38c0-.56-.1-.88-.28-1l-.19.24c0,.43-.28.72-.82.86q-.47-.1-.54-.42l.2-1.08a7.37,7.37,0,0,1,.14-1l.72-1.29,1.31-2.53,1.58-3.56,1.46-3.61.71-1.43.87-1.34.74-.58.47-.29c.49,0,.74.31.74.92a2.77,2.77,0,0,1-.25,1c-.08.21-.21.54-.39,1l-.2.61.2.35.39-.26.25-.33a4.53,4.53,0,0,1,2.24-1.64,2.56,2.56,0,0,1,.89-.91c.1,0,.42-.17,1-.38l.86-.14.2-.09a.91.91,0,0,0,.42-.19l.54-.26a8.66,8.66,0,0,1,4,1.88,12.43,12.43,0,0,1,3,3.75A8.7,8.7,0,0,1,182.91,208Zm-3.9,3.07a9.81,9.81,0,0,0-.64-3.3,11.19,11.19,0,0,0-.92-1.92,5.75,5.75,0,0,0-1.86-1.91,5.5,5.5,0,0,0-2.8-.84q-3.36.38-6.47,3.89l-.55,3.08-.61,3.28-.2,2.72-.05,1.19-.1,1.27c.05.5.16,1.25.35,2.25a19.44,19.44,0,0,0,.81,2.34q.42,1,2.07,1.05l1.66-.14a7.82,7.82,0,0,0,1.33-.51l1.31-.87,1.31-1a26.91,26.91,0,0,0,2.45-2.37c0-.05.28-.38.69-1l.47-.7.54-1.45a2,2,0,0,1,.52-1.15A12,12,0,0,0,179,211.08Z" transform="translate(0 -8.86)"/><path d="M202.67,210.94a6.56,6.56,0,0,1-.92,3.61,10,10,0,0,1-2.42,2.84c-.56.37-1.17.76-1.82,1.15l-2.18,1.1a20.25,20.25,0,0,0-2.32,1l-1.83.65c-.29.07-.75.2-1.35.4a5.9,5.9,0,0,1-1.41.14l-.3,1.88L188,225.1c.16,1.31.52,2.12,1.06,2.41-1.12,2-2.11,3.06-3,3.07s-1.29-.75-1.34-2.32l.28-4.45-.13-.73-.74-.28-.57-.23-.1-.31.05-.37a.54.54,0,0,1,.25-.47l.77-.35a2.55,2.55,0,0,0,.61-.38l.15-.68.25-1.29.05-1.45L188,203l-.54-.91a2.06,2.06,0,0,0-.77-.87l-.49-.61-.47-.77a2.7,2.7,0,0,1,.71-1.55A6,6,0,0,1,188,197a3,3,0,0,1,1.33-.77.65.65,0,0,1,.5.16l.24.14a8.64,8.64,0,0,1,3.46,1.34,21.07,21.07,0,0,1,6.64,5.6A12,12,0,0,1,202.67,210.94Zm-4.1.38q.23-4.11-5-8.3l-1.73-1.38-1-.59-1-.14-.15.14.05.19.24.16.37.33.92,1.1a5.26,5.26,0,0,1,.84,1.34,6.77,6.77,0,0,1,.22,1.22l-.22.51-.3,1.1-.35,1.41-.32,1.15-.89,2.3.05.23,0,.31a2.19,2.19,0,0,1-.42,1,10.19,10.19,0,0,0-.59,2.06l-.42,2.2-.1,1c0,.27.18.48.52.66a14.44,14.44,0,0,0,4.05-1.57l2.37-1.41a7.71,7.71,0,0,0,1.56-1.15,2.67,2.67,0,0,0,1.11-2Z" transform="translate(0 -8.86)"/></svg>