<?xml version="1.0" encoding="utf-8"?>
<!-- Generator: Adobe Illustrator 22.1.0, SVG Export Plug-In . SVG Version: 6.00 Build 0)  -->
<svg version="1.1" id="Layer_1" xmlns="http://www.w3.org/2000/svg" xmlns:xlink="http://www.w3.org/1999/xlink" x="0px" y="0px"
	 viewBox="0 0 512 512" style="enable-background:new 0 0 512 512;" xml:space="preserve">
<style type="text/css">
	.st0{fill:#FFFAFA;}
</style>
<g>
	<g>
		<path class="st0" d="M490.6,153.4c-13.7-31.3-33.2-59.2-58.1-82.8c-3.2-3.1-8.3-2.9-11.3,0.3c-3.1,3.2-2.9,8.3,0.3,11.3
			C469.5,128,496,189.7,496,256c0,132.3-107.6,240-240,240S16,388.3,16,256S123.7,16,256,16c48.3,0,94.9,14.3,134.7,41.4
			c3.7,2.5,8.6,1.5,11.1-2.1c2.5-3.7,1.5-8.6-2.1-11.1C357.3,15.3,307.6,0,256,0C187.6,0,123.3,26.6,75,75C26.6,123.3,0,187.6,0,256
			s26.6,132.7,75,181c48.4,48.4,112.6,75,181,75s132.7-26.6,181-75c48.4-48.4,75-112.6,75-181C512,220.3,504.8,185.8,490.6,153.4z"
			/>
	</g>
</g>
<g>
	<g>
		<path class="st0" d="M372.3,108.6l-154.2,71.8c-4,1.9-5.8,6.6-3.9,10.7s6.6,5.8,10.6,3.9l95.1-44.3L273.8,188l-106.1,85.9
			l-58-25.4l81.3-37.9c4-1.9,5.8-6.6,3.9-10.7c-1.9-4-6.6-5.8-10.6-3.9l-87.5,40.8c-4.7,2.2-7.6,6.9-7.5,12c0.1,5,3.1,9.5,7.7,11.5
			l64.8,28.4l19,113.9c1.2,7,10.7,9,14.6,3.1l53.8-82.2L351,371.1c8.2,3.8,17.9-2,18.4-11l14.3-243.8c0-0.2,0-0.5,0-0.7
			C383.6,109.9,377.5,106.2,372.3,108.6z M190,360.9l-12.4-74.4L304,184.2l-96.7,108.4c-0.9,1-1.5,2.2-1.8,3.5L190,360.9z
			 M207,358.6l11.7-49.2l15.7,7.3L207,358.6z M243.4,303.2l-17-7.9l83.5-93.6l-12.1,18.4L243.4,303.2z M353.6,354.6L258.1,310
			l107.9-164.7L353.6,354.6z"/>
	</g>
</g>
</svg>
